<svg xmlns="http://www.w3.org/2000/svg" width="18.149" height="18.152" viewBox="0 0 18.149 18.152">
  <g id="Group_65664" data-name="Group 65664" transform="translate(-665.69 -1558.28)">
    <path id="Path_123263" data-name="Path 123263" d="M768.4,1691.59h0Z" transform="translate(-96.017 -125.417)" fill="#ff836b"/>
    <path id="Path_123264" data-name="Path 123264" d="M705.647,1593.222c-.1.124-.257.285-.385.281s-.268-.179-.359-.31c-.052-.075-.017-.211-.018-.319q0-3.4,0-6.809c0-.408-.016-.425-.411-.425H693.462c-.407,0-.416.009-.416.413q0,7.074,0,14.149c0,.422.008.43.431.43h7.608a1.368,1.368,0,0,1,.324.015.364.364,0,0,1,.3.41.354.354,0,0,1-.335.352,2.229,2.229,0,0,1-.3.009h-7.638c-.844,0-1.2-.359-1.2-1.21q0-3.552,0-7.1,0-3.522,0-7.045c0-.858.365-1.219,1.228-1.219h10.982c.863,0,1.215.356,1.216,1.227q0,3.419,0,6.838C705.671,1593.013,705.7,1593.155,705.647,1593.222Z" transform="translate(-24.983 -24.988)" fill="#ff836b"/>
    <path id="Path_123265" data-name="Path 123265" d="M679.1,1558.665c0,.264-.176.4-.535.4h-11.63c-.457,0-.457,0-.457.467v14.647c0,.089,0,.178,0,.266a.376.376,0,0,1-.387.4.369.369,0,0,1-.394-.391c0-.069,0-.138,0-.207q0-7.413,0-14.825a1.129,1.129,0,0,1,.276-.846,1.113,1.113,0,0,1,.865-.3q4.305.006,8.611,0,1.568,0,3.137,0C678.927,1558.284,679.1,1558.411,679.1,1558.665Z" transform="translate(0 0)" fill="#ff836b"/>
    <path id="Path_123266" data-name="Path 123266" d="M855.8,1744.858a3.552,3.552,0,1,0,3.568,3.542A3.57,3.57,0,0,0,855.8,1744.858Zm.024,6.318a2.759,2.759,0,1,1,2.759-2.742A2.755,2.755,0,0,1,855.829,1751.176Z" transform="translate(-175.533 -175.531)" fill="#ff836b"/>
    <path id="Path_123267" data-name="Path 123267" d="M739.035,1786.438c.007.242-.175.4-.475.409-.079,0-.157,0-.281,0a1.112,1.112,0,0,1-.967-.379c-.123-.137-.243-.121-.374.017a.994.994,0,0,1-1.818-.462,4.714,4.714,0,0,0-.165-.535c-.037-.086-.131-.148-.2-.221-.073.08-.175.149-.211.243a5.554,5.554,0,0,0-.136.544,1.076,1.076,0,0,1-1.384.763.5.5,0,0,1-.276-.383c0-.126.21-.359.3-.348.565.064.626-.309.711-.709a.982.982,0,0,1,.97-.9.993.993,0,0,1,1,.833c.06.208.112.419.183.623.08.23.22.253.392.075a1,1,0,0,1,1.589-.082.686.686,0,0,0,.315.123,2.541,2.541,0,0,0,.354.006C738.861,1786.067,739.029,1786.205,739.035,1786.438Z" transform="translate(-63.088 -212.805)" fill="#ff836b"/>
    <path id="Path_123268" data-name="Path 123268" d="M741.144,1651.865c0,.126-.181.263-.31.359-.065.048-.191.017-.29.017h-7.421a2.049,2.049,0,0,1-.3-.009c-.217-.033-.364-.184-.326-.382.027-.142.182-.272.306-.378.053-.045.171-.017.26-.017q3.755,0,7.51,0c.1,0,.229-.028.287.022C740.987,1651.584,741.149,1651.737,741.144,1651.865Z" transform="translate(-62.851 -87.65)" fill="#ff836b"/>
    <path id="Path_123269" data-name="Path 123269" d="M766.041,1705.248c-.008.23-.181.382-.471.384-1.026,0-2.051,0-3.078,0-1.006,0-2.012.006-3.018-.006a.7.7,0,0,1-.427-.144.365.365,0,0,1,.163-.613,1.212,1.212,0,0,1,.35-.034q2.929,0,5.858,0c.049,0,.1,0,.148,0C765.87,1704.847,766.05,1705.006,766.041,1705.248Z" transform="translate(-87.725 -137.877)" fill="#ff836b"/>
    <path id="Path_123270" data-name="Path 123270" d="M737.811,1678.719a.4.4,0,0,1-.439.385c-.557,0-1.114,0-1.67,0h-1.319c-.542,0-1.085,0-1.628,0-.35,0-.571-.261-.427-.523a.539.539,0,0,1,.384-.249c1.558-.017,3.117-.013,4.676-.008A.391.391,0,0,1,737.811,1678.719Z" transform="translate(-62.65 -112.933)" fill="#ff836b"/>
    <path id="Path_123271" data-name="Path 123271" d="M803.781,1625.227c0,.249-.185.4-.516.4q-1.849,0-3.7,0c-.333,0-.517-.149-.517-.4s.185-.4.516-.4c.621,0,1.242,0,1.864,0s1.223,0,1.834,0C803.6,1624.831,803.78,1624.977,803.781,1625.227Z" transform="translate(-125.464 -62.607)" fill="#ff836b"/>
    <path id="Path_123272" data-name="Path 123272" d="M840.981,1679.125h-.739c-.246,0-.493.005-.738,0-.276-.008-.459-.177-.439-.409a.386.386,0,0,1,.442-.374h1.477a.385.385,0,0,1,.439.377C841.441,1678.949,841.258,1679.11,840.981,1679.125Z" transform="translate(-163.108 -112.952)" fill="#ff836b"/>
    <path id="Path_123273" data-name="Path 123273" d="M733.136,1705.325a.393.393,0,1,1-.4-.386A.4.4,0,0,1,733.136,1705.325Z" transform="translate(-62.712 -137.976)" fill="#ff836b"/>
    <path id="Path_123274" data-name="Path 123274" d="M887.305,1784.812q-.75.756-1.506,1.505c-.277.275-.449.272-.729,0-.239-.234-.478-.469-.709-.712-.2-.209-.212-.441-.03-.6a.385.385,0,0,1,.579.037c.164.168.314.351.5.558.486-.488.908-.915,1.334-1.339.241-.24.462-.268.643-.091S887.541,1784.573,887.305,1784.812Z" transform="translate(-205.575 -212.408)" fill="#ff836b"/>
  </g>
</svg>
