<?xml version="1.0" encoding="UTF-8"?>
<svg width="98px" height="97px" viewBox="0 0 98 97" version="1.1" xmlns="http://www.w3.org/2000/svg" xmlns:xlink="http://www.w3.org/1999/xlink">
    <title>Group 65931</title>
    <defs>
        <path d="M0,33.5 C0,14.99846 15.22232,0 34,0 C52.77768,0 68,14.99846 68,33.5 C68,52.00154 52.77768,67 34,67 C15.22232,67 0,52.00154 0,33.5 Z" id="path-1"></path>
        <filter x="-41.9%" y="-24.6%" width="183.8%" height="185.1%" filterUnits="objectBoundingBox" id="filter-2">
            <feOffset dx="0" dy="12" in="SourceAlpha" result="shadowOffsetOuter1"></feOffset>
            <feGaussianBlur stdDeviation="7.5" in="shadowOffsetOuter1" result="shadowBlurOuter1"></feGaussianBlur>
            <feColorMatrix values="0 0 0 0 0   0 0 0 0 0   0 0 0 0 0  0 0 0 0.06 0" type="matrix" in="shadowBlurOuter1"></feColorMatrix>
        </filter>
    </defs>
    <g id="null" stroke="none" stroke-width="1" fill="none" fill-rule="evenodd">
        <g id="Artboard-–-1" transform="translate(-962.000000, -877.000000)">
            <g id="Group-65931" transform="translate(977.000000, 880.000000)">
                <g id="Ellipse-294">
                    <use fill="black" fill-opacity="1" filter="url(#filter-2)" xlink:href="#path-1"></use>
                    <use fill="#FFFFFF" fill-rule="evenodd" xlink:href="#path-1"></use>
                </g>
                <path d="M62.3239002,33.1667601 C62.3239002,48.8769425 49.5883104,61.6126403 33.8780601,61.6126403 C18.1678998,61.6126403 5.43229992,48.8769425 5.43229992,33.1667601 C5.43229992,17.4565677 18.1678998,4.72044 33.8780601,4.72044 C49.5883104,4.72044 62.3239002,17.4565677 62.3239002,33.1667601" id="Path-123559" fill="#0EA78A"></path>
                <path d="M33.87841,48.1655587 C27.5976597,48.1655587 22.2521136,52.3265052 20.24973,58.1418113 C24.2967156,60.3541207 28.9404084,61.6125418 33.87841,61.6125418 C38.8164816,61.6125418 43.4601845,60.3541207 47.50738,58.1418113 C45.5046965,52.3265052 40.1591504,48.1655587 33.87841,48.1655587" id="Path-123560" fill="#FFFFFF"></path>
                <path d="M33.8785202,46.7443802 C28.7476302,46.7443802 24.4180219,52.1211492 23.0538795,59.4775937 C26.3907736,60.8524542 30.0456289,61.6126602 33.8785202,61.6126602 C37.7113715,61.6126602 41.3662568,60.8524542 44.7031608,59.4775937 C43.3390385,52.1211492 39.0094102,46.7443802 33.8785202,46.7443802" id="Path-123561" fill="#EEEFF1"></path>
                <path d="M33.8821251,45.3200114 C29.8750322,45.3200114 26.6265801,46.5667297 26.6265801,48.1045997 C26.6265801,49.6425297 29.8750322,50.8891879 33.8821251,50.8891879 C37.8892481,50.8891879 41.1377602,49.6425297 41.1377602,48.1045997 C41.1377602,46.5667297 37.8892481,45.3200114 33.8821251,45.3200114" id="Path-123562" fill="#D1D3D4"></path>
                <polygon id="Rectangle-35562" fill="#EEEFF1" points="17.5488357 32.1595805 17.5488357 18.7768803 18.7060508 18.7768803 18.7060508 32.1595805"></polygon>
                <polygon id="Rectangle-35563" fill="#EEEFF1" points="49.0495994 32.1595805 49.0495994 18.7768803 50.2167905 18.7768803 50.2167905 32.1595805"></polygon>
                <path d="M19.6340592,30.2578204 C17.0514926,30.2578204 14.9578384,32.3514667 14.9578384,34.9339912 C14.9578384,37.5165158 17.0514926,39.610102 19.6340592,39.610102 C22.2166458,39.610102 24.3102799,37.5165158 24.3102799,34.9339912 C24.3102799,32.3514667 22.2166458,30.2578204 19.6340592,30.2578204" id="Path-123563" fill="#D1D3D4"></path>
                <path d="M48.1258453,30.2578204 C45.5404738,30.2578204 43.4445982,32.3514667 43.4445982,34.9339912 C43.4445982,37.5165158 45.5404738,39.610102 48.1258453,39.610102 C50.7111868,39.610102 52.8070624,37.5165158 52.8070624,34.9339912 C52.8070624,32.3514667 50.7111868,30.2578204 48.1258453,30.2578204" id="Path-123564" fill="#D1D3D4"></path>
                <path d="M33.6153552,21.7606798 C25.1976382,21.9012073 18.5253993,28.9452621 18.5253993,37.3649572 C18.5253993,37.3649572 18.5253993,43.9087119 18.5253993,43.9087119 C18.5253993,46.2290813 20.4062339,48.1100808 22.7264797,48.1100808 C22.7264797,48.1100808 45.0292308,48.1100808 45.0292308,48.1100808 C47.3493766,48.1100808 49.2302012,46.2290813 49.2302012,43.9087119 C49.2302012,43.9087119 49.2302012,37.1122676 49.2302012,37.1122676 C49.2302012,28.545326 42.2144073,21.6170327 33.6153552,21.7606898" id="Path-123565" fill="#D1D3D4"></path>
                <path d="M33.6153552,20.1160994 C25.1976382,20.2567374 18.5253993,27.3007062 18.5253993,35.7204101 C18.5253993,35.7204101 18.5253993,43.3216718 18.5253993,43.3216718 C18.5253993,45.0580304 19.932891,46.4656803 21.6690914,46.4656803 C21.6690914,46.4656803 46.0865591,46.4656803 46.0865591,46.4656803 C47.8228095,46.4656803 49.2302012,45.0580304 49.2302012,43.3216718 C49.2302012,43.3216718 49.2302012,35.4677696 49.2302012,35.4677696 C49.2302012,26.9007488 42.2144073,19.9725418 33.6153552,20.1161094" id="Path-123566" fill="#EEEFF1"></path>
                <path d="M33.6740567,22.9299801 C27.1296699,23.0405168 21.9423998,28.5798636 21.9423998,35.2008662 C21.9423998,35.2008662 21.9423998,41.1783697 21.9423998,41.1783697 C21.9423998,42.5438427 23.0366536,43.65078 24.3864217,43.65078 C24.3864217,43.65078 43.3698187,43.65078 43.3698187,43.65078 C44.7195867,43.65078 45.8138406,42.5438427 45.8138406,41.1783697 C45.8138406,41.1783697 45.8138406,35.0021841 45.8138406,35.0021841 C45.8138406,28.2652645 40.3593883,22.8170532 33.6740667,22.9299801" id="Path-123567" fill="#D1D3D4"></path>
                <path d="M33.6740862,23.9312985 C27.1297529,24.0418239 21.9423998,29.5795786 21.9423998,36.1987322 C21.9423998,36.1987322 21.9423998,41.1791612 21.9423998,41.1791612 C21.9423998,42.5441868 23.0366564,43.6507799 24.3864278,43.6507799 C24.3864278,43.6507799 43.3698725,43.6507799 43.3698725,43.6507799 C44.7197139,43.6507799 45.8139605,42.5441868 45.8139605,41.1791612 C45.8139605,41.1791612 45.8139605,36.0000465 45.8139605,36.0000465 C45.8139605,29.2650488 40.3594346,23.8184037 33.6740962,23.9312985" id="Path-123568" fill="#353849"></path>
                <path d="M28.6173153,31.17008 C27.8279014,31.17008 27.1880402,31.8100812 27.1880402,32.5994601 C27.1880402,33.3888389 27.8278914,34.0288401 28.6173153,34.0288401 C29.4067293,34.0288401 30.0466204,33.3888389 30.0466204,32.5994601 C30.0466204,31.8100812 29.4067293,31.17008 28.6173153,31.17008" id="Path-123569" fill="#FFFFFF"></path>
                <path d="M39.1389251,31.17008 C38.3495112,31.17008 37.70962,31.8100812 37.70962,32.5994601 C37.70962,33.3888389 38.3495112,34.0288401 39.1389251,34.0288401 C39.9282791,34.0288401 40.5682002,33.3888389 40.5682002,32.5994601 C40.5682002,31.8100812 39.9282791,31.17008 39.1389251,31.17008" id="Path-123570" fill="#FFFFFF"></path>
                <path d="M37.3705395,36.1849196 C32.7132608,36.1849196 30.3846215,36.1849196 30.3846215,36.1849196 C30.155586,36.1849196 29.9781992,36.3858177 30.0030989,36.6135015 C30.2164509,38.5650912 31.8697288,40.0836797 33.8775405,40.0836797 C35.8854422,40.0836797 37.5386302,38.5650912 37.7520421,36.6135915 C37.7768719,36.3858177 37.599545,36.1849196 37.3705495,36.1849196" id="Path-123571" fill="#FFFFFF"></path>
                <path d="M18.1224925,16.3148183 C17.2099929,16.3148183 16.4703168,17.0545021 16.4703168,17.966979 C16.4703168,18.8794859 17.2100029,19.6191397 18.1224925,19.6191397 C19.0349922,19.6191397 19.7746582,18.8794859 19.7746582,17.966979 C19.7746582,17.0545021 19.0349922,16.3148183 18.1224925,16.3148183" id="Path-123572" fill="#D1D3D4"></path>
                <path d="M49.6337713,16.3148183 C48.7212388,16.3148183 47.9815605,17.0545021 47.9815605,17.966979 C47.9815605,18.8794859 48.7212488,19.6191397 49.6337713,19.6191397 C50.5462436,19.6191397 51.285922,18.8794859 51.285922,17.966979 C51.285922,17.0545021 50.5462336,16.3148183 49.6337713,16.3148183" id="Path-123573" fill="#D1D3D4"></path>
            </g>
        </g>
    </g>
</svg>