<?xml version="1.0" encoding="UTF-8"?>
<svg width="17px" height="17px" viewBox="0 0 17 17" version="1.1" xmlns="http://www.w3.org/2000/svg" xmlns:xlink="http://www.w3.org/1999/xlink">
    <title>Path 123584</title>
    <g id="null" stroke="none" stroke-width="1" fill="none" fill-rule="evenodd">
        <g id="Artboard-–-1" transform="translate(-497.000000, -298.000000)" fill="#FFFFFF">
            <path d="M513.18285,312.674124 C513.553693,313.044944 513.553693,313.646146 513.18285,314.016286 C512.997333,314.201696 512.754336,314.29476 512.512069,314.29476 C512.269073,314.29476 512.026006,314.201696 511.840679,314.016286 C511.840679,314.016286 509.665061,311.840689 505.313825,307.489497 C500.962675,311.840689 498.7871,314.016286 498.7871,314.016286 C498.602383,314.201696 498.359136,314.29476 498.11638,314.29476 C497.873263,314.29476 497.630387,314.201696 497.44493,314.016286 C497.074086,313.646156 497.074086,313.044944 497.44493,312.674124 C497.44493,312.674124 499.620485,310.498494 503.971594,306.147235 C499.620485,301.796409 497.44493,299.620996 497.44493,299.620996 C497.074086,299.250157 497.074086,298.648984 497.44493,298.278185 C497.815714,297.907345 498.417046,297.907345 498.7871,298.278185 C498.7871,298.278185 500.962675,300.453791 505.313825,304.805003 C509.665061,300.453791 511.840679,298.278185 511.840679,298.278185 C512.211463,297.907345 512.811946,297.907345 513.18285,298.278185 C513.553693,298.648984 513.553693,299.250167 513.18285,299.620996 C513.18285,299.620996 511.007275,301.796409 506.656125,306.147235 C511.007275,310.498494 513.18285,312.674124 513.18285,312.674124 Z" id="Path-123584"></path>
        </g>
    </g>
</svg>