<svg width="18" height="17" viewBox="0 0 18 17" fill="none" xmlns="http://www.w3.org/2000/svg">
<mask id="mask0_380_709" style="mask-type:luminance" maskUnits="userSpaceOnUse" x="0" y="0" width="18" height="17">
<path d="M17.2185 0H0.894531V16.323H17.2185V0Z" fill="white"/>
</mask>
<g mask="url(#mask0_380_709)">
<path d="M10.4946 8.16011L16.9176 1.74711C17.1001 1.5532 17.1998 1.29586 17.1957 1.02964C17.1916 0.763418 17.084 0.509261 16.8957 0.321058C16.7074 0.132856 16.4531 0.0254071 16.1869 0.0214963C15.9207 0.0175856 15.6634 0.11752 15.4696 0.30011L9.05762 6.72311L2.64462 0.30011C2.4526 0.107828 2.19206 -0.000300501 1.92032 -0.000488037C1.64858 -0.000675573 1.3879 0.107093 1.19562 0.29911C1.00334 0.491126 0.895207 0.751662 0.89502 1.0234C0.894832 1.29514 1.0026 1.55583 1.19462 1.74811L7.61962 8.16011L1.19462 14.5731C1.09986 14.6677 1.02468 14.7801 0.973392 14.9039C0.922101 15.0276 0.895701 15.1602 0.895701 15.2941C0.895701 15.428 0.922101 15.5606 0.973392 15.6844C1.02468 15.8081 1.09986 15.9205 1.19462 16.0151L1.20062 16.0221C1.29486 16.1173 1.40694 16.1929 1.53044 16.2447C1.65394 16.2965 1.78645 16.3235 1.92037 16.324C2.0543 16.3246 2.18702 16.2987 2.31095 16.248C2.43488 16.1972 2.54758 16.1225 2.64262 16.0281L2.64962 16.0221L9.05762 9.60011L15.4706 16.0241C15.5649 16.1193 15.6769 16.1949 15.8004 16.2467C15.9239 16.2985 16.0564 16.3255 16.1904 16.326C16.3243 16.3266 16.457 16.3007 16.581 16.25C16.7049 16.1992 16.8176 16.1245 16.9126 16.0301L16.9186 16.0241C17.0138 15.9299 17.0896 15.8179 17.1415 15.6944C17.1933 15.571 17.2204 15.4385 17.221 15.3046C17.2217 15.1706 17.1959 15.0379 17.1452 14.9139C17.0945 14.79 17.0199 14.6772 16.9256 14.5821L16.9186 14.5751L10.4946 8.16011Z" fill="#4E6ACB"/>
</g>
</svg>
