<svg width="17" height="10" viewBox="0 0 17 10" fill="none" xmlns="http://www.w3.org/2000/svg">
<path d="M0.249022 0.794923C0.391355 0.648347 0.582386 0.558893 0.786111 0.543421C0.989836 0.527948 1.19218 0.587525 1.35502 0.710923L1.45502 0.794923L8.25902 7.74092L15.067 0.794923C15.2094 0.648347 15.4004 0.558893 15.6041 0.543421C15.8078 0.527948 16.0102 0.587525 16.173 0.710923L16.273 0.794923C16.4171 0.943333 16.5042 1.13773 16.5192 1.34401C16.5342 1.55028 16.4761 1.75524 16.355 1.92292L16.273 2.02292L8.86002 9.57792C8.71769 9.7245 8.52666 9.81395 8.32293 9.82943C8.11921 9.8449 7.91686 9.78532 7.75402 9.66192L7.65402 9.57792L0.249022 2.02092C0.0893438 1.85682 0 1.63689 0 1.40792C0 1.17896 0.0893438 0.959024 0.249022 0.794923Z" fill="#EBB700"/>
</svg>
