<svg width="23" height="17" viewBox="0 0 23 17" fill="none" xmlns="http://www.w3.org/2000/svg">
<path d="M22.3838 1.45595C22.3048 1.55484 22.2186 1.64776 22.1258 1.73395C17.4478 6.41395 12.7728 11.0916 8.10084 15.7669C7.48784 16.3769 7.10084 16.3769 6.48684 15.7669C4.60417 13.8789 2.7195 11.9919 0.832838 10.1059C0.769838 10.0399 0.699838 9.97695 0.640838 9.90595C0.488196 9.74503 0.405035 9.53049 0.409339 9.30873C0.413643 9.08697 0.505067 8.87582 0.663838 8.72095C0.823937 8.56754 1.0371 8.48189 1.25884 8.48189C1.48057 8.48189 1.69374 8.56754 1.85384 8.72095C1.92984 8.79095 2.00284 8.86695 2.07584 8.93995C3.71584 10.5799 5.35517 12.2193 6.99384 13.8579C7.08284 13.9469 7.15984 14.0499 7.31184 14.2359C7.40411 14.097 7.50427 13.9634 7.61184 13.8359C12.0525 9.39661 16.4948 4.95861 20.9388 0.521946C21.1427 0.328792 21.3926 0.191082 21.6648 0.121946C21.8274 0.0905053 21.9959 0.116238 22.1417 0.194786C22.2875 0.273333 22.4017 0.399865 22.4648 0.552946C22.5475 0.693617 22.5845 0.856425 22.5709 1.01901C22.5573 1.18159 22.4937 1.33597 22.3888 1.46095" fill="#4E6ACB"/>
<path d="M7.29572 16.323C7.12403 16.3036 6.9579 16.2503 6.80687 16.1664C6.65584 16.0825 6.5229 15.9695 6.41572 15.834C4.52772 13.943 2.60872 12.028 0.761717 10.177L0.689717 10.1C0.647717 10.062 0.608717 10.019 0.564717 9.972C0.396035 9.79152 0.304552 9.55228 0.309783 9.3053C0.315014 9.05833 0.416545 8.82317 0.592717 8.65C0.766322 8.4775 1.00098 8.38047 1.24572 8.38C1.49408 8.38351 1.73293 8.47613 1.91872 8.641C1.97972 8.697 2.03672 8.754 2.09172 8.81L2.14572 8.865C3.75872 10.478 5.42672 12.146 7.06372 13.786C7.13903 13.8649 7.21013 13.9476 7.27672 14.034L7.30772 14.072L7.35372 14.008C7.41091 13.9222 7.47513 13.8412 7.54572 13.766L9.21672 12.094C13.0327 8.275 16.9787 4.326 20.8687 0.451C21.0848 0.242999 21.3512 0.0945124 21.6417 0.02C21.6988 0.00675431 21.7571 4.4473e-05 21.8157 0C21.972 0.00808123 22.1231 0.0590031 22.2523 0.147192C22.3816 0.23538 22.4842 0.357437 22.5487 0.5C22.6402 0.657453 22.6813 0.839198 22.6663 1.0207C22.6512 1.20221 22.5809 1.37474 22.4647 1.515C22.3965 1.60232 22.3216 1.68423 22.2407 1.76L22.1967 1.804L15.1837 8.821L8.17072 15.837C8.06422 15.9718 7.93205 16.0842 7.78186 16.1676C7.63168 16.251 7.46644 16.3038 7.29572 16.323ZM1.24572 8.581C1.0538 8.58152 0.869824 8.65769 0.733717 8.793C0.592573 8.93018 0.511535 9.11769 0.508349 9.31449C0.505163 9.51129 0.580087 9.70133 0.716717 9.843C0.750717 9.883 0.789717 9.921 0.830717 9.962L0.908717 10.037C2.75872 11.887 4.67272 13.801 6.56072 15.692C6.74173 15.9257 7.00624 16.0802 7.29872 16.123C7.58957 16.0807 7.85269 15.9273 8.03272 15.695L15.0417 8.68L22.0547 1.664L22.0997 1.619C22.1719 1.55018 22.2388 1.47596 22.2997 1.397C22.3927 1.28725 22.4493 1.15131 22.4617 1.00799C22.474 0.864673 22.4415 0.721053 22.3687 0.597C22.3202 0.486524 22.243 0.391107 22.145 0.320736C22.047 0.250366 21.9319 0.20763 21.8117 0.197C21.7686 0.197145 21.7257 0.202177 21.6837 0.212C21.4301 0.279744 21.1978 0.410849 21.0087 0.593C17.1207 4.467 13.1747 8.417 9.35872 12.236L7.68672 13.908C7.62403 13.9757 7.56685 14.0482 7.51572 14.125C7.47972 14.176 7.43872 14.232 7.39072 14.296L7.31372 14.396L7.23372 14.296L7.12072 14.157C7.05815 14.0762 6.99139 13.9988 6.92072 13.925C5.28572 12.288 3.61772 10.62 2.00872 9.007L1.95372 8.952C1.90072 8.898 1.84572 8.842 1.78972 8.792C1.6397 8.65846 1.44654 8.58354 1.24572 8.581Z" fill="#4E6ACB"/>
</svg>
