<svg width="15" height="17" viewBox="0 0 15 17" fill="none" xmlns="http://www.w3.org/2000/svg">
<g clip-path="url(#clip0_406_50)">
<path d="M13.2696 6.34961C13.2696 6.34961 12.8227 12.0701 12.5708 14.4841C12.5645 14.7342 12.5111 14.9804 12.4137 15.2089C12.3164 15.4374 12.1769 15.6436 12.0034 15.8157C11.8298 15.9878 11.6256 16.1224 11.4022 16.2119C11.1789 16.3013 10.941 16.3439 10.7019 16.3371H10.6532C8.52964 16.3768 6.40883 16.3768 4.29073 16.3371C3.81419 16.3509 3.35165 16.1677 3.00334 15.8272C2.65503 15.4867 2.44903 15.0164 2.42997 14.5181C2.17807 12.0786 1.73926 6.37508 1.73926 6.37508" stroke="#4E6ACB" stroke-width="1.5" stroke-linecap="round" stroke-linejoin="round"/>
<path d="M14.3908 3.604H0.577148" stroke="#4E6ACB" stroke-width="1.5" stroke-linecap="round" stroke-linejoin="round"/>
<path d="M11.7335 3.60395C11.4243 3.60225 11.1251 3.48879 10.8867 3.28276C10.6483 3.07674 10.4853 2.79084 10.4253 2.47349L10.2303 1.44497C10.1789 1.20503 10.0513 0.990364 9.86832 0.836005C9.68534 0.681646 9.45779 0.596701 9.22274 0.594971H5.78554C5.55048 0.596701 5.32294 0.681646 5.13996 0.836005C4.95699 0.990364 4.82938 1.20503 4.77797 1.44497L4.58296 2.47349C4.52129 2.79154 4.35669 3.07762 4.11691 3.28354C3.87713 3.48947 3.57683 3.60261 3.2666 3.60395" stroke="#4E6ACB" stroke-width="1.5" stroke-linecap="round" stroke-linejoin="round"/>
</g>
<defs>
<clipPath id="clip0_406_50">
<rect width="15" height="17" fill="white"/>
</clipPath>
</defs>
</svg>
