<svg width="18" height="20" viewBox="0 0 18 20" fill="none" xmlns="http://www.w3.org/2000/svg">
<g clip-path="url(#clip0_380_736)">
<g opacity="0.18">
<mask id="mask0_380_736" style="mask-type:luminance" maskUnits="userSpaceOnUse" x="1" y="6" width="16" height="14">
<path d="M16.646 6.69604H1.35303V20H16.646V6.69604Z" fill="white"/>
</mask>
<g mask="url(#mask0_380_736)">
<path d="M16.6429 7.48795C16.6429 7.55595 16.1099 14.297 15.8059 17.134C15.7819 17.9063 15.4526 18.6376 14.8902 19.1675C14.3278 19.6974 13.5783 19.9828 12.8059 19.961C11.5129 19.99 10.2459 20 8.99991 20C7.67691 20 6.38391 19.99 5.12791 19.961C4.36772 19.9642 3.6363 19.6705 3.0894 19.1425C2.54251 18.6145 2.22336 17.8938 2.19991 17.134C1.88691 14.287 1.36391 7.55595 1.35291 7.48795C1.34347 7.28428 1.41214 7.08469 1.54491 6.92995C1.61155 6.85741 1.69255 6.7995 1.78275 6.75991C1.87295 6.72031 1.9704 6.6999 2.06891 6.69995H15.9389C16.0374 6.70155 16.1345 6.72312 16.2244 6.76334C16.3143 6.80356 16.3951 6.8616 16.4619 6.93395C16.5281 7.00996 16.5783 7.09858 16.6094 7.19447C16.6405 7.29036 16.6519 7.39154 16.6429 7.49195" fill="#4E6ACB"/>
</g>
</g>
<path d="M18 3.977C18.0015 3.88218 17.9843 3.78801 17.9493 3.69985C17.9144 3.6117 17.8624 3.53129 17.7964 3.46322C17.7304 3.39516 17.6516 3.34076 17.5645 3.30315C17.4775 3.26553 17.3839 3.24543 17.289 3.244H14.371C14.0793 3.24115 13.7973 3.13879 13.5716 2.95386C13.3459 2.76893 13.1902 2.5125 13.13 2.227L12.967 1.5C12.8601 1.07544 12.6158 0.698146 12.2722 0.426852C11.9285 0.155558 11.5048 0.00548698 11.067 0L6.93604 0C6.49 0.00584861 6.05887 0.161467 5.71193 0.441854C5.36498 0.72224 5.12236 1.11112 5.02304 1.546L4.87004 2.228C4.80943 2.51298 4.65363 2.76885 4.42826 2.9535C4.20289 3.13816 3.92138 3.24061 3.63004 3.244H0.714045C0.619229 3.24504 0.525547 3.26476 0.438349 3.30201C0.351152 3.33926 0.272146 3.39333 0.205844 3.46111C0.139542 3.5289 0.0872416 3.60909 0.0519304 3.69709C0.0166192 3.78509 -0.0010116 3.87918 4.48132e-05 3.974V4.357C-0.000787649 4.54839 0.073574 4.73244 0.207117 4.86954C0.34066 5.00664 0.522703 5.08581 0.714045 5.09H17.287C17.4783 5.0858 17.6602 5.0066 17.7936 4.86948C17.927 4.73235 18.0011 4.54829 18 4.357V3.977Z" fill="#4E6ACB"/>
</g>
<defs>
<clipPath id="clip0_380_736">
<rect width="18" height="20" fill="white"/>
</clipPath>
</defs>
</svg>
