<svg width="20" height="18" viewBox="0 0 20 18" fill="none" xmlns="http://www.w3.org/2000/svg">
<path d="M19.367 7.88797V12.4799C19.367 15.6939 17.53 17.072 14.775 17.072H5.59103C2.83603 17.072 0.999023 15.6939 0.999023 12.4799V6.05197C0.999023 2.83797 2.83603 1.45996 5.59103 1.45996H12.02" stroke="#90A2DE" stroke-linecap="round" stroke-linejoin="round"/>
<path d="M5.5918 6.50977L8.4628 8.80975C8.96088 9.17837 9.56416 9.37735 10.1838 9.37735C10.8035 9.37735 11.4067 9.17837 11.9048 8.80975L12.9858 7.94577" stroke="#E1E1E1" stroke-linecap="round" stroke-linejoin="round"/>
<path d="M17.0714 5.592C18.3394 5.592 19.3674 4.56405 19.3674 3.296C19.3674 2.02795 18.3394 1 17.0714 1C15.8033 1 14.7754 2.02795 14.7754 3.296C14.7754 4.56405 15.8033 5.592 17.0714 5.592Z" stroke="#E1E1E1" stroke-linecap="round" stroke-linejoin="round"/>
</svg>
