<svg width="24" height="24" viewBox="0 0 24 24" fill="none" xmlns="http://www.w3.org/2000/svg">
<path d="M9.01916 23L14.2695 20.5281V14.0418L22.5059 5.68674C22.8187 5.37055 22.996 4.94496 23.0003 4.50022V2.66112C23.0029 2.44557 22.963 2.23162 22.8829 2.03148C22.8029 1.83135 22.6841 1.64894 22.5336 1.49469C22.383 1.34044 22.2035 1.21736 22.0053 1.13248C21.8072 1.0476 21.5943 1.00258 21.3787 1H2.59219C2.16032 1.01294 1.75097 1.19564 1.45295 1.50847C1.15493 1.8213 0.99228 2.23902 1.00028 2.67101V4.54966C1.00366 4.96871 1.15814 5.37246 1.43534 5.68674L9.01916 14.1011V23Z" stroke="#4E6ACB" stroke-width="1.5" stroke-linecap="round" stroke-linejoin="round"/>
</svg>
