<svg width="347" height="379" viewBox="0 0 347 379" fill="none" xmlns="http://www.w3.org/2000/svg">
<path fill-rule="evenodd" clip-rule="evenodd" d="M258.23 267.374L264.603 261.439L270.975 267.374V272.636L264.603 266.702L258.23 272.636V267.374Z" fill="white"/>
<path fill-rule="evenodd" clip-rule="evenodd" d="M258.23 276.975L264.603 269.277L270.975 276.975V283.805L264.603 276.079L258.23 283.805V276.975Z" fill="white"/>
<path d="M11.2639 316.331C17.5247 310.732 34.5462 296.457 43.6859 288.591H57.6609L30.4376 311.012L60.5397 346.45H46.5647L22.36 317.198L11.18 325.904V346.45H0V260.348H11.18L11.2639 316.331Z" fill="white"/>
<path d="M69.4839 303.678V287.667H80.1328C80.3005 289.431 80.5521 295.589 80.5521 300.907C82.489 296.299 85.785 292.392 89.9992 289.711C94.1755 287.091 99.0516 285.811 103.974 286.044V296.737C90.5861 296.737 80.4123 304.686 80.4123 321.929V346.45H69.5957L69.4839 303.678Z" fill="white"/>
<path d="M121.611 318.738C121.606 321.287 122.113 323.81 123.101 326.159C124.09 328.507 125.54 330.632 127.365 332.408C129.19 334.184 131.354 335.574 133.726 336.496C136.099 337.417 138.632 337.851 141.176 337.773C150.148 337.773 155.151 334.134 158.197 328.563H169.014C165.911 337.101 157.834 346.45 140.617 346.45C120.046 346.45 110.654 331.474 110.654 316.415C110.654 299.116 122.226 286.044 140.365 286.044C162.166 286.044 169.852 301.943 169.852 315.911V318.71L121.611 318.738ZM158.617 311.097C158.141 304.295 154.508 294.302 140.309 294.302C128.486 294.302 122.757 301.635 121.778 311.097H158.617Z" fill="white"/>
<path d="M239.113 260.348V328.423C239.113 334.021 239.113 339.62 239.113 344.854H228.743C228.436 342.503 228.352 339.004 228.296 336.177C225.501 341.019 220.582 346.45 207.445 346.45C191.066 346.45 179.942 334.105 179.942 316.807C179.942 298.024 193.917 286.296 208.759 286.296C222.091 286.296 226.703 292.342 228.324 295.057V260.348H239.113ZM191.039 316.667C191.039 327.191 197.383 337.576 209.737 337.576C223.265 337.576 228.827 328.843 228.827 316.219C228.827 303.595 224.383 295.253 210.128 295.253C197.299 295.253 191.039 306.002 191.039 316.779V316.667Z" fill="white"/>
<path d="M269.382 287.164H260.438V346.45H269.382V287.164Z" fill="white"/>
<path d="M340.851 366.716C339.59 366.712 338.359 367.101 337.327 367.828C336.296 368.555 335.515 369.584 335.093 370.774V372.314H346.273V370.047C345.756 369.051 344.978 368.215 344.023 367.628C343.068 367.042 341.971 366.726 340.851 366.716ZM335.261 287.807C335.121 289.627 334.981 292.482 334.981 296.205C333.584 293.098 328.022 286.128 313.879 286.128C299.121 286.128 283.805 297.716 283.805 317.982C283.805 335.365 296.298 348.129 312.817 348.129C325.478 348.129 331.516 343.175 334.981 337.492V366.912C335.683 366.138 336.534 365.513 337.482 365.076C338.43 364.638 339.457 364.397 340.5 364.365C341.544 364.334 342.583 364.514 343.555 364.893C344.528 365.273 345.414 365.845 346.161 366.576V304.238C346.161 298.64 346.161 292.51 346.161 287.667L335.261 287.807ZM314.885 338.724C303.09 338.724 295.516 329.403 295.516 317.311C295.516 305.218 302.028 295.421 315.836 295.421C329.643 295.421 335.401 304.434 335.401 316.947C335.317 331.138 328.162 338.724 314.885 338.724Z" fill="white"/>
<path d="M346.999 372.734C346.894 374.292 346.202 375.752 345.063 376.818C343.924 377.884 342.423 378.477 340.864 378.477C339.305 378.477 337.804 377.884 336.665 376.818C335.526 375.752 334.834 374.292 334.729 372.734C334.736 372.019 334.859 371.31 335.093 370.635C335.538 369.471 336.328 368.471 337.358 367.771C338.387 367.07 339.606 366.702 340.85 366.716C341.999 366.695 343.131 366.996 344.119 367.585C345.106 368.173 345.91 369.026 346.44 370.047C346.823 370.89 347.013 371.808 346.999 372.734Z" fill="white"/>
<path d="M346.999 372.734C346.894 374.292 346.202 375.752 345.063 376.818C343.924 377.884 342.423 378.477 340.864 378.477C339.305 378.477 337.804 377.884 336.665 376.818C335.526 375.752 334.834 374.292 334.729 372.734C334.736 372.019 334.859 371.31 335.093 370.635C335.538 369.471 336.328 368.471 337.358 367.771C338.387 367.07 339.606 366.702 340.85 366.716C341.999 366.695 343.131 366.996 344.119 367.585C345.106 368.173 345.91 369.026 346.44 370.047C346.823 370.89 347.013 371.808 346.999 372.734Z" fill="white"/>
<path d="M173.137 0H174.95C204.995 0 233.81 11.8893 255.055 33.0525C276.3 54.2156 288.235 82.919 288.235 112.848C288.235 142.777 276.3 171.481 255.055 192.644C233.81 213.807 204.995 225.696 174.95 225.696H173.137C143.092 225.696 114.278 213.807 93.0326 192.644C71.7874 171.481 59.8521 142.777 59.8521 112.848C59.8521 82.919 71.7874 54.2156 93.0326 33.0525C114.278 11.8893 143.092 0 173.137 0Z" fill="white"/>
<path d="M246.437 107.143V192.729L244.62 191.655L209.498 171.333L172.513 149.936V107.143L204.561 125.83C207.812 120.143 209.515 113.698 209.498 107.143C209.515 100.588 207.812 94.1429 204.561 88.4561C201.428 83.121 197.048 78.6313 191.797 75.3752L190.167 74.4408C184.76 71.4395 178.693 69.834 172.513 69.7691C166.343 69.8018 160.284 71.4095 154.905 74.4408C154.346 74.7679 153.787 75.0482 153.228 75.4219C147.85 78.618 143.388 83.1568 140.279 88.5962C137.011 94.2763 135.307 100.725 135.341 107.283C135.307 113.841 137.011 120.29 140.279 125.97L135.341 128.82L108.231 144.517C101.711 133.15 98.3046 120.256 98.3557 107.143C98.3538 94.1248 101.759 81.3341 108.231 70.0494C114.424 59.3403 123.181 50.3485 133.711 43.8877L135.341 42.9066L137.018 41.9723C147.861 36.085 159.996 33.002 172.326 33.0026C184.641 32.9637 196.767 36.0322 207.588 41.9256L209.265 42.9066L210.849 43.7943C221.39 50.2604 230.15 59.2704 236.329 70.0027C242.927 81.2628 246.416 94.0823 246.437 107.143Z" fill="url(#paint0_linear_415_110)"/>
<path d="M172.512 149.936V144.19C166.346 144.135 160.292 142.529 154.905 139.518C154.346 139.238 153.787 138.864 153.228 138.537C147.902 135.416 143.448 130.997 140.278 125.69L135.341 128.54L108.23 144.237C114.407 154.943 123.149 163.935 133.664 170.398L135.341 171.333L136.971 172.314C147.799 178.196 159.918 181.278 172.233 181.284C184.563 181.284 196.698 178.201 207.541 172.314L209.218 171.333L172.512 149.936Z" fill="url(#paint1_linear_415_110)"/>
<defs>
<linearGradient id="paint0_linear_415_110" x1="98.542" y1="112.889" x2="246.437" y2="112.889" gradientUnits="userSpaceOnUse">
<stop stop-color="#2B97DD"/>
<stop offset="1" stop-color="#595EC7"/>
</linearGradient>
<linearGradient id="paint1_linear_415_110" x1="142.141" y1="153.487" x2="242.384" y2="153.487" gradientUnits="userSpaceOnUse">
<stop stop-color="#328FDA"/>
<stop offset="1" stop-color="#5760C8"/>
</linearGradient>
</defs>
</svg>
