<svg width="20" height="20" viewBox="0 0 20 20" fill="none" xmlns="http://www.w3.org/2000/svg">
<path d="M9.33572 0.799805H5.66572C2.65272 0.799805 0.761719 2.9308 0.761719 5.9488V14.0888C0.761719 17.1058 2.64372 19.2378 5.66172 19.2378H14.3167C17.3427 19.2378 19.2167 17.1068 19.2167 14.0888V10.1448" stroke="#90A2DE" stroke-linecap="round" stroke-linejoin="round"/>
<path d="M6.26734 9.06475L13.8673 1.47075C14.322 1.01673 14.9383 0.761719 15.5808 0.761719C16.2234 0.761719 16.8397 1.01673 17.2943 1.47075L18.5273 2.70575C18.9815 3.16013 19.2367 3.77629 19.2367 4.41875C19.2367 5.06121 18.9815 5.67738 18.5273 6.13175L10.8933 13.7658C10.4797 14.1797 9.91856 14.4124 9.33334 14.4128H5.52734L5.62734 10.5698C5.64007 10.0046 5.86915 9.46595 6.26734 9.06475Z" stroke="#E1E1E1" stroke-linecap="round" stroke-linejoin="round"/>
<path d="M12.707 2.64185L17.349 7.28385" stroke="#E1E1E1" stroke-linecap="round" stroke-linejoin="round"/>
</svg>
