<svg width="27" height="20" viewBox="0 0 27 20" fill="none" xmlns="http://www.w3.org/2000/svg">
<path d="M26.3748 11.1224C23.6652 13.8877 20.9541 16.6508 18.2416 19.4116C18.0455 19.6229 17.813 19.7957 17.5556 19.9212C17.3019 20.0198 17.0226 20.0261 16.7649 19.939C16.5072 19.852 16.2868 19.677 16.141 19.4435C15.7935 18.9133 15.8608 18.3168 16.3652 17.7981C17.8358 16.2851 19.3116 14.7783 20.7927 13.2775C21.4182 12.6422 22.0504 12.0182 22.6803 11.3875C22.6624 11.3372 22.6467 11.2892 22.631 11.2366H1.89438C1.70383 11.2366 1.51104 11.2366 1.32048 11.2366C0.522405 11.2069 0.00678929 10.7179 6.39067e-05 9.99338C-0.00666148 9.26891 0.517919 8.74783 1.34514 8.72041C1.49758 8.72041 1.65003 8.72041 1.80471 8.72041H22.7543C22.5301 8.49187 22.3978 8.33418 22.2611 8.19477L16.5714 2.38754C16.4305 2.25498 16.3001 2.11131 16.1813 1.95788C16.0148 1.71814 15.9367 1.42611 15.9609 1.13337C15.9851 0.840626 16.11 0.566027 16.3136 0.358093C16.5186 0.151395 16.7889 0.0257261 17.0764 0.00353683C17.3639 -0.0186524 17.6497 0.0640907 17.8829 0.236974C18.0188 0.344701 18.1462 0.463142 18.264 0.591209C20.9541 3.3337 23.6503 6.08381 26.3524 8.84154C27.211 9.68714 27.2132 10.2653 26.3748 11.1224Z" fill="black"/>
</svg>
