<svg width="20" height="18" viewBox="0 0 20 18" fill="none" xmlns="http://www.w3.org/2000/svg">
<path d="M19.368 7.88797V12.4799C19.368 15.6939 17.531 17.072 14.776 17.072H5.59201C2.83701 17.072 1 15.6939 1 12.4799V6.05197C1 2.83797 2.83701 1.45996 5.59201 1.45996H12.021" stroke="#4E6ACB" stroke-linecap="round" stroke-linejoin="round"/>
<path d="M5.59277 6.50977L8.46378 8.80975C8.96185 9.17837 9.56514 9.37735 10.1848 9.37735C10.8044 9.37735 11.4077 9.17837 11.9058 8.80975L12.9868 7.94577" stroke="#EBB700" stroke-linecap="round" stroke-linejoin="round"/>
<path d="M17.0714 5.592C18.3394 5.592 19.3674 4.56405 19.3674 3.296C19.3674 2.02795 18.3394 1 17.0714 1C15.8033 1 14.7754 2.02795 14.7754 3.296C14.7754 4.56405 15.8033 5.592 17.0714 5.592Z" stroke="#EBB700" stroke-linecap="round" stroke-linejoin="round"/>
</svg>
