<svg width="23" height="23" viewBox="0 0 23 23" fill="none" xmlns="http://www.w3.org/2000/svg">
<path d="M17 1H6C3.23858 1 1 3.23858 1 6V17C1 19.7614 3.23858 22 6 22H17C19.7614 22 22 19.7614 22 17V6C22 3.23858 19.7614 1 17 1Z" stroke="#4E6ACB" stroke-width="1.5" stroke-linecap="round" stroke-linejoin="round"/>
<path d="M13.6382 5.88364C12.9084 5.65892 12.1489 5.54572 11.3853 5.54788C9.88686 5.55026 8.4321 6.05295 7.25185 6.9762C6.07159 7.89945 5.23344 9.19039 4.87036 10.6442C4.50728 12.098 4.64007 13.6314 5.24766 15.0012C5.85525 16.3709 6.90285 17.4986 8.22424 18.2052C9.54564 18.9118 11.0652 19.1569 12.5417 18.9017C14.0183 18.6464 15.3673 17.9054 16.3748 16.7962C17.3823 15.687 17.9906 14.2731 18.1031 12.7789C18.2156 11.2846 17.8259 9.79563 16.9958 8.54807" stroke="#EBB700" stroke-width="1.2" stroke-linecap="round" stroke-linejoin="round"/>
<path d="M14.6025 6.06777L12.3496 3.48999" stroke="#EBB700" stroke-width="1.5" stroke-linecap="round" stroke-linejoin="round"/>
<path d="M14.6026 6.06763L11.9814 7.98472" stroke="#EBB700" stroke-width="1.5" stroke-linecap="round" stroke-linejoin="round"/>
<path d="M12.817 14.3271C12.7909 14.6049 12.6698 14.8652 12.4741 15.064C12.2784 15.2629 12.02 15.3881 11.7427 15.4186H11.6567V15.8397C11.6567 16.0116 11.5622 16.1147 11.4161 16.1147C11.3821 16.1138 11.3487 16.1058 11.318 16.0911C11.2874 16.0763 11.2602 16.0553 11.2383 16.0293C11.2163 16.0033 11.2002 15.973 11.1908 15.9403C11.1815 15.9076 11.1792 15.8733 11.184 15.8397V15.4186H10.9864C10.6662 15.3503 10.3857 15.1587 10.2056 14.8853C10.0254 14.6119 9.96013 14.2786 10.0238 13.9575C10.0357 13.903 10.0663 13.8543 10.1102 13.8198C10.1541 13.7853 10.2086 13.7671 10.2644 13.7684C10.3208 13.7682 10.3752 13.7894 10.4167 13.8277C10.4581 13.8659 10.4835 13.9184 10.4879 13.9747C10.4879 14.052 10.4879 14.1294 10.4879 14.2067C10.492 14.3962 10.568 14.5771 10.7004 14.7127C10.8329 14.8483 11.0119 14.9286 11.2012 14.9373H11.6138C11.7877 14.9424 11.9579 14.886 12.0943 14.778C12.2308 14.6699 12.3247 14.5173 12.3596 14.3468C12.3946 14.1763 12.3682 13.9989 12.2852 13.846C12.2022 13.693 12.0679 13.5742 11.906 13.5106C11.5278 13.3473 11.1411 13.2098 10.7629 13.0551C10.6159 12.9956 10.4821 12.9077 10.3692 12.7963C10.2563 12.685 10.1665 12.5524 10.105 12.4063C10.0435 12.2601 10.0115 12.1032 10.0108 11.9447C10.0102 11.7861 10.0409 11.629 10.1011 11.4823C10.1471 11.3651 10.2141 11.2573 10.2988 11.1643C10.404 11.0351 10.5345 10.9288 10.6823 10.8519C10.8301 10.7751 10.9921 10.7293 11.1582 10.7174V10.2619C11.1555 10.1999 11.176 10.1391 11.2158 10.0914C11.2555 10.0437 11.3116 10.0125 11.3731 10.004C11.4096 9.99727 11.4472 9.99903 11.4829 10.0092C11.5186 10.0193 11.5514 10.0376 11.5789 10.0626C11.6064 10.0875 11.6277 10.1185 11.6412 10.1531C11.6547 10.1877 11.66 10.2249 11.6567 10.2619V10.7174H11.8544C12.1667 10.7819 12.442 10.9646 12.6229 11.2272C12.8039 11.4898 12.8765 11.8121 12.8256 12.1269C12.8154 12.183 12.7856 12.2337 12.7415 12.2699C12.6975 12.3061 12.642 12.3255 12.5849 12.3245C12.5271 12.3246 12.4715 12.3022 12.4299 12.2622C12.3882 12.2221 12.3637 12.1674 12.3615 12.1097C12.3615 12.0237 12.3615 11.9464 12.3615 11.869C12.3549 11.6804 12.2765 11.5015 12.1423 11.3689C12.0081 11.2362 11.8282 11.16 11.6395 11.1557H11.2184C11.046 11.1548 10.8787 11.2142 10.7455 11.3236C10.6123 11.4331 10.5215 11.5856 10.4888 11.7549C10.4562 11.9242 10.4838 12.0996 10.5668 12.2507C10.6498 12.4018 10.783 12.5191 10.9434 12.5824L12.0177 13.0121C12.2816 13.1062 12.5051 13.2883 12.6507 13.5277C12.7962 13.7672 12.855 14.0494 12.817 14.3271Z" fill="#EBB700" stroke="#EBB700" stroke-width="0.3"/>
</svg>
