<svg width="20" height="20" viewBox="0 0 20 20" fill="none" xmlns="http://www.w3.org/2000/svg">
<path d="M13.8237 1H16.7397C17.3208 1.00291 17.8771 1.23614 18.2865 1.64855C18.6959 2.06096 18.925 2.61889 18.9237 3.2V6.14C18.9237 6.72089 18.694 7.2782 18.2846 7.69036C17.8753 8.10251 17.3196 8.33604 16.7387 8.34H13.8237C13.2427 8.3363 12.6867 8.10289 12.2771 7.69071C11.8676 7.27853 11.6377 6.72106 11.6377 6.14V3.205C11.6364 2.62308 11.8656 2.06433 12.2753 1.65107C12.685 1.23781 13.2418 1.0037 13.8237 1Z" stroke="#EBB700" stroke-linecap="round" stroke-linejoin="round"/>
<path d="M3.26022 1H6.17422C6.75527 1.0037 7.31126 1.23711 7.72082 1.64929C8.13037 2.06147 8.36024 2.61894 8.36022 3.2V6.14C8.36289 6.72279 8.13419 7.28282 7.72435 7.69716C7.31451 8.11151 6.75701 8.3463 6.17422 8.35H3.26022C2.67831 8.3463 2.12157 8.11219 1.71187 7.69893C1.30217 7.28567 1.07289 6.72692 1.07422 6.145V3.205C1.07289 2.62308 1.30217 2.06433 1.71187 1.65107C2.12157 1.23781 2.67831 1.0037 3.26022 1Z" stroke="#4E6ACB" stroke-linecap="round" stroke-linejoin="round"/>
<path d="M3.26022 11.502H6.17422C6.75614 11.5057 7.31288 11.7398 7.72258 12.153C8.13228 12.5663 8.36156 13.125 8.36022 13.707V16.646C8.36024 17.227 8.13037 17.7845 7.72082 18.1967C7.31126 18.6088 6.75527 18.8423 6.17422 18.846H3.26022C2.67918 18.8423 2.12319 18.6088 1.71363 18.1967C1.30408 17.7845 1.07421 17.227 1.07422 16.646V13.707C1.07289 13.125 1.30217 12.5663 1.71187 12.153C2.12157 11.7398 2.67831 11.5057 3.26022 11.502Z" stroke="#4E6ACB" stroke-linecap="round" stroke-linejoin="round"/>
<path d="M13.8237 11.502H16.7397C17.3213 11.5062 17.8775 11.7405 18.2868 12.1537C18.696 12.5669 18.925 13.1254 18.9237 13.707V16.646C18.925 17.2272 18.6957 17.7853 18.2861 18.1978C17.8765 18.6102 17.32 18.8433 16.7387 18.846H13.8237C13.2427 18.8423 12.6867 18.6088 12.2771 18.1967C11.8676 17.7845 11.6377 17.227 11.6377 16.646V13.707C11.6364 13.125 11.8656 12.5663 12.2753 12.153C12.685 11.7398 13.2418 11.5057 13.8237 11.502Z" stroke="#4E6ACB" stroke-linecap="round" stroke-linejoin="round"/>
</svg>
