<svg width="20" height="20" viewBox="0 0 20 20" fill="none" xmlns="http://www.w3.org/2000/svg">
<path d="M9.574 0.799805H5.904C2.891 0.799805 1 2.9308 1 5.9488V14.0888C1 17.1058 2.882 19.2378 5.9 19.2378H14.555C17.581 19.2378 19.455 17.1068 19.455 14.0888V10.1448" stroke="#4E6ACB" stroke-linecap="round" stroke-linejoin="round"/>
<path d="M6.50563 9.06475L14.1056 1.47075C14.5603 1.01673 15.1766 0.761719 15.8191 0.761719C16.4617 0.761719 17.078 1.01673 17.5326 1.47075L18.7656 2.70575C19.2198 3.16013 19.475 3.77629 19.475 4.41875C19.475 5.06121 19.2198 5.67738 18.7656 6.13175L11.1316 13.7658C10.718 14.1797 10.1568 14.4124 9.57163 14.4128H5.76562L5.86562 10.5698C5.87836 10.0046 6.10743 9.46595 6.50563 9.06475Z" stroke="#EBB700" stroke-linecap="round" stroke-linejoin="round"/>
<path d="M12.9453 2.64185L17.5873 7.28385" stroke="#EBB700" stroke-linecap="round" stroke-linejoin="round"/>
</svg>
