<svg width="23" height="27" viewBox="0 0 23 27" fill="none" xmlns="http://www.w3.org/2000/svg">
<path d="M15.1447 1.01153H6.17577C4.82582 1.00506 3.52731 1.52889 2.55973 2.47026C1.59215 3.41163 1.03287 4.69528 1.00227 6.04489V20.5027C0.982071 21.1835 1.09681 21.8615 1.33987 22.4978C1.58293 23.1341 1.94951 23.7159 2.41848 24.2099C2.88745 24.7038 3.44953 25.1 4.07234 25.3757C4.69515 25.6515 5.36637 25.8012 6.0473 25.8163H16.9549C18.3139 25.7589 19.5977 25.1768 20.5364 24.1923C21.475 23.2079 21.9955 21.8979 21.9882 20.5377V8.13531L15.1447 1.01153Z" stroke="#4E6ACB" stroke-width="1.5" stroke-linecap="round" stroke-linejoin="round"/>
<path d="M14.7832 1V4.92392C14.7832 5.8531 15.1523 6.74423 15.8094 7.40126C16.4664 8.0583 17.3575 8.42741 18.2867 8.42741H22.0004" stroke="#4E6ACB" stroke-width="1.5" stroke-linecap="round" stroke-linejoin="round"/>
<path d="M14.5373 18.2839H7.25" stroke="#EBB700" stroke-width="1.5" stroke-linecap="round" stroke-linejoin="round"/>
<path d="M11.7929 11.604H7.25" stroke="#EBB700" stroke-width="1.5" stroke-linecap="round" stroke-linejoin="round"/>
</svg>
