<svg xmlns="http://www.w3.org/2000/svg" width="24.393" height="25.675" viewBox="0 0 24.393 25.675">
  <g id="Group_761" data-name="Group 761" transform="translate(-36.981 -617.898)">
    <path id="Path_33946" d="M12.987,25.675H11.4a3.4,3.4,0,0,1-2.422-1,3.156,3.156,0,0,1-.944-2.242l-.012-.189a1.351,1.351,0,0,0-.189-.542,1.456,1.456,0,0,0-1.249-.713,1.589,1.589,0,0,0-.789.22l-.228.112a3.44,3.44,0,0,1-2.3.164,3.352,3.352,0,0,1-2.016-1.559L.433,18.543l-.109-.2a3.251,3.251,0,0,1,1.321-4.233l.136-.083a1.432,1.432,0,0,0,.633-1.184,1.461,1.461,0,0,0-.771-1.269l-.2-.125A3.25,3.25,0,0,1,.463,7.07L1.3,5.727A3.4,3.4,0,0,1,4.222,4.07,3.34,3.34,0,0,1,5.857,4.5l.171.089a1.385,1.385,0,0,0,.546.122A1.459,1.459,0,0,0,8.047,3.263l.01-.248A3.268,3.268,0,0,1,9.023.968,3.416,3.416,0,0,1,11.4,0h1.585A3.424,3.424,0,0,1,15.4,1a3.206,3.206,0,0,1,.951,2.31l.01.189a1.313,1.313,0,0,0,.185.533,1.467,1.467,0,0,0,1.252.706,1.57,1.57,0,0,0,.79-.221l.21-.106a3.41,3.41,0,0,1,4.349,1.34l.787,1.338a.977.977,0,0,1,.055.11l.073.143a3.27,3.27,0,0,1-1.135,4.113l-.33.2a1.435,1.435,0,0,0-.574,1.545,1.462,1.462,0,0,0,.719.892l.214.135a3.288,3.288,0,0,1,1.319,1.846,3.22,3.22,0,0,1-.349,2.513l-.847,1.383-.127.194a3.4,3.4,0,0,1-2.775,1.421,3.309,3.309,0,0,1-1.626-.424l-.176-.089a1.52,1.52,0,0,0-.558-.128h-.009a1.467,1.467,0,0,0-1.03.418,1.448,1.448,0,0,0-.428,1.063l-.01.221A3.36,3.36,0,0,1,12.987,25.675ZM6.579,19.13a3.4,3.4,0,0,1,.865.112,3.334,3.334,0,0,1,2.03,1.525,3.19,3.19,0,0,1,.44,1.311l.025.454A1.458,1.458,0,0,0,11.4,23.817h1.585a1.45,1.45,0,0,0,1.464-1.286l.007-.14a3.28,3.28,0,0,1,.983-2.341,3.392,3.392,0,0,1,2.392-.962h.018a3.489,3.489,0,0,1,1.345.31l.406.2a1.5,1.5,0,0,0,.6.122,1.438,1.438,0,0,0,1.179-.587l.094-.142.827-1.351a1.415,1.415,0,0,0-.389-1.868l-.35-.217a3.292,3.292,0,0,1-1.363-1.876,3.245,3.245,0,0,1,.34-2.5,3.33,3.33,0,0,1,1.018-1.076l.206-.127a1.418,1.418,0,0,0,.608-1.82l-.091-.171-.016-.036-.751-1.278a1.49,1.49,0,0,0-1.281-.728,1.407,1.407,0,0,0-.439.069l-.142.057-.133.066a3.419,3.419,0,0,1-2.547.349,3.367,3.367,0,0,1-2.05-1.515,3.189,3.189,0,0,1-.44-1.311l-.016-.324a1.434,1.434,0,0,0-.416-1.047,1.494,1.494,0,0,0-1.052-.436H11.4a1.465,1.465,0,0,0-1.034.421,1.417,1.417,0,0,0-.418.848l-.017.392A3.34,3.34,0,0,1,5.193,6.252l-.247-.127a1.486,1.486,0,0,0-.726-.19,1.5,1.5,0,0,0-1.291.74L2.1,8.016a1.412,1.412,0,0,0,.4,1.881l.335.208a3.275,3.275,0,0,1,1.481,2.733,3.314,3.314,0,0,1-1.484,2.734l-.2.124a1.4,1.4,0,0,0-.607,1.814l.072.136L2.9,19.011a1.456,1.456,0,0,0,.884.687,1.546,1.546,0,0,0,.412.056,1.394,1.394,0,0,0,.555-.11l.14-.067A3.4,3.4,0,0,1,6.579,19.13Z" transform="translate(36.981 617.898)" fill="#95b0b9"/>
    <path id="Ellipse_737" d="M4.282,8.392A4.245,4.245,0,0,1,0,4.2,4.244,4.244,0,0,1,4.282,0,4.245,4.245,0,0,1,8.565,4.2,4.245,4.245,0,0,1,4.282,8.392Zm0-6.533A2.364,2.364,0,0,0,1.9,4.2a2.386,2.386,0,0,0,4.771,0A2.364,2.364,0,0,0,4.282,1.859Z" transform="translate(44.9 626.54)" fill="#ccd7db"/>
  </g>
</svg>
