<svg width="18" height="19" viewBox="0 0 18 19" fill="none" xmlns="http://www.w3.org/2000/svg">
<g clip-path="url(#clip0_412_62)">
<path fill-rule="evenodd" clip-rule="evenodd" d="M2.25168e-06 9.83996C-0.00107289 8.84136 0.382912 7.8808 1.07207 7.15811C1.76122 6.43543 2.70248 6.00629 3.7 5.95996H4.7C4.86327 5.96548 5.0187 6.03135 5.13621 6.14484C5.25371 6.25833 5.32496 6.41137 5.33615 6.57435C5.34735 6.73733 5.29771 6.89867 5.19682 7.02716C5.09594 7.15565 4.95098 7.24217 4.79 7.26996H3.89C3.23361 7.26884 2.60166 7.51892 2.12378 7.96891C1.6459 8.4189 1.35831 9.03468 1.32 9.68996V14.12C1.31902 14.7753 1.56943 15.4061 2.01965 15.8824C2.46987 16.3587 3.0856 16.6441 3.74 16.68H13.65C14.3116 16.6915 14.9523 16.4474 15.4384 15.9985C15.9246 15.5496 16.2189 14.9304 16.26 14.27V9.82996C16.2611 9.17621 16.0121 8.54681 15.564 8.0708C15.1159 7.5948 14.5026 7.30827 13.85 7.26996H12.85C12.6767 7.26733 12.5114 7.19664 12.3898 7.07315C12.2681 6.94966 12.2 6.78329 12.2 6.60996C12.1985 6.45209 12.2545 6.29906 12.3575 6.17944C12.4606 6.05983 12.6036 5.98181 12.76 5.95996H13.68C14.6752 5.96133 15.6319 6.34508 16.3521 7.03186C17.0724 7.71863 17.5013 8.65593 17.55 9.64996V14.13C17.5461 15.1288 17.1591 16.088 16.4688 16.8099C15.7785 17.5318 14.8376 17.9613 13.84 18.01H3.89C2.8904 18.0112 1.9287 17.6275 1.20441 16.9386C0.480118 16.2497 0.0488253 15.3084 2.25168e-06 14.31V9.83996Z" fill="#4E6ACB"/>
<path fill-rule="evenodd" clip-rule="evenodd" d="M8.1001 0.65003C8.10272 0.476726 8.17342 0.31141 8.29691 0.189791C8.4204 0.0681714 8.58677 1.02461e-05 8.7601 3.01421e-05C8.91797 -0.00148958 9.071 0.0545036 9.19061 0.157554C9.31023 0.260605 9.38824 0.403668 9.4101 0.56003V11.22C9.40747 11.3933 9.33678 11.5587 9.21329 11.6803C9.0898 11.8019 8.92342 11.8701 8.7501 11.87C8.59071 11.8712 8.43644 11.8138 8.3166 11.7088C8.19676 11.6037 8.11971 11.4582 8.1001 11.3V0.65003Z" fill="#FFB800"/>
<path fill-rule="evenodd" clip-rule="evenodd" d="M5.73997 3.68993C5.62886 3.5778 5.56091 3.43003 5.54811 3.2727C5.5353 3.11536 5.57846 2.95855 5.66997 2.82993L5.73997 2.74993L8.25997 0.189928C8.37509 0.0724123 8.52941 0.00135267 8.69354 -0.0097122C8.85767 -0.0207771 9.02013 0.0289262 9.14997 0.129928L9.25997 0.189928L11.79 2.74993C11.9147 2.86617 11.9895 3.02614 11.9989 3.19634C12.0083 3.36655 11.9515 3.53378 11.8403 3.66302C11.7292 3.79226 11.5723 3.87349 11.4026 3.88969C11.2329 3.90589 11.0636 3.85581 10.93 3.74993L10.85 3.68993L8.75997 1.58993L6.66997 3.68993C6.5566 3.79953 6.40821 3.86564 6.2509 3.87661C6.0936 3.88759 5.93746 3.84273 5.80997 3.74993L5.73997 3.68993Z" fill="#FFB800"/>
</g>
<defs>
<clipPath id="clip0_412_62">
<rect width="17.53" height="18.01" fill="white"/>
</clipPath>
</defs>
</svg>
