<?xml version="1.0" encoding="UTF-8"?>
<svg width="11px" height="17px" viewBox="0 0 11 17" version="1.1" xmlns="http://www.w3.org/2000/svg" xmlns:xlink="http://www.w3.org/1999/xlink">
    <title>Arrow - Down 2</title>
    <g id="null" stroke="none" stroke-width="1" fill="none" fill-rule="evenodd">
        <g id="Artboard-–-1" transform="translate(-212.000000, -298.000000)" fill="#FFFFFF">
            <g id="Arrow---Down-2" transform="translate(217.571105, 306.499880) rotate(-90.000000) translate(-217.571105, -306.499880) translate(209.312310, 301.854370)">
                <path d="M0.251143357,9.03280957 C0.552749351,9.34021245 1.02472049,9.36815545 1.35730196,9.11664853 C1.35730196,9.11664853 1.389064,9.08870221 1.45258806,9.03280957 L8.25990484,2.09446565 C12.798116,6.72002826 15.0672216,9.03280957 15.0672216,9.03280957 C15.3688276,9.34021245 15.8407987,9.36815545 16.1733802,9.11664853 C16.1733802,9.11664853 16.2686563,9.03280957 16.2686563,9.03280957 C16.5702623,8.72540668 16.5976783,8.2443816 16.3509143,7.90540923 C16.3509143,7.90540923 16.323495,7.87303718 16.2686563,7.80829309 C11.3299636,2.77474481 8.86061719,0.257970665 8.86061719,0.257970665 C8.5590112,-0.0494322225 8.08704006,-0.0773752149 7.75445859,0.174131697 C7.75445859,0.174131697 7.72269655,0.20207802 7.65917249,0.257970665 C2.72047973,5.29151895 0.251133358,7.80829309 0.251133358,7.80829309 C-0.0806382345,8.14643627 -0.0806382345,8.69466639 0.251133358,9.03280957 C0.251133358,9.03280957 0.251143357,9.03280957 0.251143357,9.03280957 Z"></path>
            </g>
        </g>
    </g>
</svg>