<svg width="18" height="10" viewBox="0 0 18 10" fill="none" xmlns="http://www.w3.org/2000/svg">
<path d="M1.06152 9.57787C1.20386 9.72445 1.39489 9.8139 1.59861 9.82937C1.80234 9.84485 2.00468 9.78527 2.16752 9.66187L2.26752 9.57787L9.07152 2.63287L15.8795 9.57787C16.0219 9.72445 16.2129 9.8139 16.4166 9.82937C16.6203 9.84485 16.8227 9.78527 16.9855 9.66187L17.0855 9.57787C17.2296 9.42946 17.3167 9.23506 17.3317 9.02879C17.3467 8.82252 17.2886 8.61755 17.1675 8.44987L17.0855 8.34987L9.67252 0.794872C9.53014 0.648028 9.33891 0.558404 9.13495 0.542928C8.931 0.527452 8.72844 0.587194 8.56552 0.710872L8.46552 0.794872L1.06152 8.35187C0.901844 8.51597 0.8125 8.7359 0.8125 8.96487C0.8125 9.19384 0.901844 9.41377 1.06152 9.57787Z" fill="#EBB700"/>
</svg>
