<svg width="33" height="32" viewBox="0 0 33 32" fill="none" xmlns="http://www.w3.org/2000/svg">
<path d="M0.671875 31.0751C0.671875 29.0331 1.07409 27.011 1.85555 25.1244C2.63701 23.2378 3.78241 21.5236 5.22636 20.0796C6.67032 18.6357 8.38453 17.4903 10.2711 16.7088C12.1578 15.9274 14.1798 15.5251 16.2219 15.5251C18.2639 15.5251 20.286 15.9274 22.1726 16.7088C24.0592 17.4903 25.7734 18.6357 27.2174 20.0796C28.6613 21.5236 29.8067 23.2378 30.5882 25.1244C31.3697 27.011 31.7719 29.0331 31.7719 31.0751" fill="#FFC94B"/>
<path d="M13.3077 4.26001H10.3467V31.076H13.3077V4.26001Z" fill="white"/>
<path d="M13.5884 31.3572H10.0664V3.98022H13.5884V31.3572ZM10.6274 30.7962H13.0274V4.54122H10.6274V30.7962Z" fill="#6E84D5"/>
<path d="M26.962 4.26001H24.001V31.076H26.962V4.26001Z" fill="white"/>
<path d="M27.2427 31.3572H23.7207V3.98022H27.2427V31.3572ZM24.2817 30.7962H26.6817V4.54122H24.2817V30.7962Z" fill="#6E84D5"/>
<path d="M25.747 7.00317H24.001V8.12517H25.747V7.00317Z" fill="#ECF6FF"/>
<path d="M13.3095 7.00317H11.5635V8.12517H13.3095V7.00317Z" fill="#ECF6FF"/>
<path d="M25.747 9.10718H24.001V10.2292H25.747V9.10718Z" fill="#ECF6FF"/>
<path d="M25.747 11.2112H24.001V12.3332H25.747V11.2112Z" fill="#ECF6FF"/>
<path d="M25.747 13.3152H24.001V14.4372H25.747V13.3152Z" fill="#ECF6FF"/>
<path d="M25.747 15.4192H24.001V16.5412H25.747V15.4192Z" fill="#ECF6FF"/>
<path d="M25.747 17.5242H24.001V18.6462H25.747V17.5242Z" fill="#ECF6FF"/>
<path d="M25.747 19.6282H24.001V20.7502H25.747V19.6282Z" fill="#ECF6FF"/>
<path d="M25.747 21.7322H24.001V22.8542H25.747V21.7322Z" fill="#ECF6FF"/>
<path d="M25.747 23.8362H24.001V24.9582H25.747V23.8362Z" fill="#ECF6FF"/>
<path d="M25.747 25.9402H24.001V27.0622H25.747V25.9402Z" fill="#ECF6FF"/>
<path d="M25.747 28.0442H24.001V29.1662H25.747V28.0442Z" fill="#ECF6FF"/>
<path d="M23.9996 1.5481H13.3076V31.0761H23.9996V1.5481Z" fill="white"/>
<path d="M24.2763 31.3561H13.0273V1.26807H24.2763V31.3561ZM13.5843 30.7951H23.7193V1.82907H13.5883L13.5843 30.7951Z" fill="#6E84D5"/>
<path d="M14.8795 3.01318H14.3525V30.7962H14.8795V3.01318Z" fill="#ECF6FF"/>
<path d="M16.2252 3.01318H15.6982V30.7962H16.2252V3.01318Z" fill="#ECF6FF"/>
<path d="M17.5709 3.01318H17.0439V30.7962H17.5709V3.01318Z" fill="#ECF6FF"/>
<path d="M18.9186 3.01318H18.3916V30.7962H18.9186V3.01318Z" fill="#ECF6FF"/>
<path d="M20.2643 3.01318H19.7373V30.7962H20.2643V3.01318Z" fill="#ECF6FF"/>
<path d="M21.61 3.01318H21.083V30.7962H21.61V3.01318Z" fill="#ECF6FF"/>
<path d="M22.9557 3.01318H22.4287V30.7962H22.9557V3.01318Z" fill="#ECF6FF"/>
<path d="M16.9866 8.51514H5.39062V31.0761H16.9866V8.51514Z" fill="white"/>
<path d="M13.3074 28.6362H9.06836V31.0762H13.3074V28.6362Z" fill="#ECF6FF"/>
<path d="M9.94163 11.6172H5.39062V12.7392H9.94163V11.6172Z" fill="#ECF6FF"/>
<path d="M9.94163 13.9231H5.39062V15.0451H9.94163V13.9231Z" fill="#ECF6FF"/>
<path d="M9.94163 16.2302H5.39062V17.3522H9.94163V16.2302Z" fill="#ECF6FF"/>
<path d="M9.94163 18.5371H5.39062V19.6591H9.94163V18.5371Z" fill="#ECF6FF"/>
<path d="M9.94163 20.843H5.39062V21.965H9.94163V20.843Z" fill="#ECF6FF"/>
<path d="M9.94163 23.1501H5.39062V24.2721H9.94163V23.1501Z" fill="#ECF6FF"/>
<path d="M9.94163 25.457H5.39062V26.579H9.94163V25.457Z" fill="#ECF6FF"/>
<path d="M16.9865 11.6172H12.4355V12.7392H16.9865V11.6172Z" fill="#ECF6FF"/>
<path d="M16.9865 13.9231H12.4355V15.0451H16.9865V13.9231Z" fill="#ECF6FF"/>
<path d="M16.9865 16.2302H12.4355V17.3522H16.9865V16.2302Z" fill="#ECF6FF"/>
<path d="M16.9865 18.5371H12.4355V19.6591H16.9865V18.5371Z" fill="#ECF6FF"/>
<path d="M16.9865 20.843H12.4355V21.965H16.9865V20.843Z" fill="#ECF6FF"/>
<path d="M16.9865 23.1501H12.4355V24.2721H16.9865V23.1501Z" fill="#ECF6FF"/>
<path d="M16.9865 25.457H12.4355V26.579H16.9865V25.457Z" fill="#ECF6FF"/>
<path d="M16.9866 9.59009H5.39062V10.1511H16.9866V9.59009Z" fill="#6E84D5"/>
<path d="M9.94163 12.458H5.39062V13.019H9.94163V12.458Z" fill="#6E84D5"/>
<path d="M16.9865 12.458H12.4355V13.019H16.9865V12.458Z" fill="#6E84D5"/>
<path d="M9.94163 14.7651H5.39062V15.3261H9.94163V14.7651Z" fill="#6E84D5"/>
<path d="M16.9865 14.7651H12.4355V15.3261H16.9865V14.7651Z" fill="#6E84D5"/>
<path d="M9.94163 17.072H5.39062V17.633H9.94163V17.072Z" fill="#6E84D5"/>
<path d="M16.9865 17.072H12.4355V17.633H16.9865V17.072Z" fill="#6E84D5"/>
<path d="M9.94163 19.3782H5.39062V19.9392H9.94163V19.3782Z" fill="#6E84D5"/>
<path d="M16.9865 19.3782H12.4355V19.9392H16.9865V19.3782Z" fill="#6E84D5"/>
<path d="M9.94163 21.6851H5.39062V22.2461H9.94163V21.6851Z" fill="#6E84D5"/>
<path d="M16.9865 21.6851H12.4355V22.2461H16.9865V21.6851Z" fill="#6E84D5"/>
<path d="M9.94163 23.9922H5.39062V24.5532H9.94163V23.9922Z" fill="#6E84D5"/>
<path d="M16.9865 23.9922H12.4355V24.5532H16.9865V23.9922Z" fill="#6E84D5"/>
<path d="M9.94163 26.2981H5.39062V26.8591H9.94163V26.2981Z" fill="#6E84D5"/>
<path d="M15.3964 28.3562H6.98242V28.9172H15.3964V28.3562Z" fill="#6E84D5"/>
<path d="M16.9865 26.2981H12.4355V26.8591H16.9865V26.2981Z" fill="#6E84D5"/>
<path d="M11.4692 28.6362H10.9082V31.0762H11.4692V28.6362Z" fill="#6E84D5"/>
<path d="M8.3608 28.6362H7.7998V31.0762H8.3608V28.6362Z" fill="#6E84D5"/>
<path d="M14.5932 28.6362H14.0322V31.0762H14.5932V28.6362Z" fill="#6E84D5"/>
<path d="M17.2674 31.3561H5.11035V8.23413H17.2674V31.3561ZM5.66735 30.7951H16.7064V8.79513H5.67135L5.66735 30.7951Z" fill="#6E84D5"/>
<path d="M30.9526 26.0391H30.3916V31.3511H30.9526V26.0391Z" fill="#6E84D5"/>
<path d="M32.2333 23.9052C32.2333 25.1342 31.5333 26.1302 30.6723 26.1302C29.8113 26.1302 29.1113 25.1302 29.1113 23.9052C29.1113 22.6802 29.8113 21.6802 30.6723 21.6802C31.5333 21.6802 32.2333 22.6802 32.2333 23.9052Z" fill="white"/>
<path d="M30.673 26.4092C29.657 26.4092 28.8311 25.2852 28.8311 23.9042C28.8311 22.5232 29.657 21.3992 30.673 21.3992C31.689 21.3992 32.5141 22.5232 32.5141 23.9042C32.5141 25.2852 31.688 26.4092 30.673 26.4092ZM30.673 21.9602C29.979 21.9602 29.392 22.8502 29.392 23.9042C29.392 24.9582 29.978 25.8482 30.673 25.8482C31.368 25.8482 31.953 24.9582 31.953 23.9042C31.953 22.8502 31.367 21.9602 30.673 21.9602Z" fill="#6E84D5"/>
<path d="M6.23158 31.0761C6.20804 30.873 6.11069 30.6856 5.95804 30.5496C5.80539 30.4135 5.60807 30.3383 5.40358 30.3381C5.35563 30.3384 5.30779 30.3428 5.26058 30.3511C5.22155 29.9967 5.06997 29.6641 4.82808 29.4022C4.58619 29.1402 4.26672 28.9626 3.91653 28.8955C3.56634 28.8284 3.20386 28.8753 2.88226 29.0293C2.56066 29.1833 2.29687 29.4363 2.12958 29.7512C1.95815 29.7322 1.78465 29.7495 1.62039 29.8021C1.45613 29.8547 1.3048 29.9414 1.17628 30.0564C1.04776 30.1714 0.94494 30.3123 0.874517 30.4697C0.804094 30.6271 0.767656 30.7977 0.767578 30.9701C0.767578 31.0061 0.767578 31.0411 0.772578 31.0761H6.23158Z" fill="white"/>
<path d="M6.5463 31.3561H0.515305L0.493305 31.0991C0.493305 31.0561 0.487305 31.0131 0.487305 30.9701C0.487779 30.5736 0.644012 30.1931 0.922342 29.9106C1.20067 29.6282 1.57882 29.4664 1.9753 29.4601C2.1835 29.1438 2.47931 28.8951 2.82658 28.7442C3.17386 28.5933 3.55757 28.5469 3.93082 28.6105C4.30407 28.6741 4.6507 28.8451 4.92836 29.1025C5.20602 29.36 5.40268 29.6927 5.4943 30.0601C5.75146 30.081 5.99338 30.1905 6.17871 30.37C6.36403 30.5495 6.48125 30.7877 6.5103 31.0441L6.5463 31.3561ZM1.0643 30.7951H5.8103C5.74691 30.7285 5.66824 30.6784 5.58111 30.6492C5.49398 30.6199 5.40103 30.6123 5.3103 30.6271L5.0153 30.6781L4.9833 30.3781C4.94934 30.0848 4.82276 29.81 4.62194 29.5936C4.42113 29.3772 4.15655 29.2305 3.86664 29.1748C3.57673 29.119 3.2766 29.1571 3.00984 29.2836C2.74309 29.4101 2.52362 29.6184 2.3833 29.8781L2.2943 30.0451L2.1053 30.0241C2.0721 30.0204 2.03872 30.0184 2.0053 30.0181C1.78389 30.0185 1.56954 30.0961 1.39922 30.2376C1.2289 30.379 1.11328 30.5755 1.0723 30.7931" fill="#6E84D5"/>
<path d="M31.8439 31.0761C31.8204 30.873 31.723 30.6856 31.5704 30.5496C31.4177 30.4135 31.2204 30.3383 31.0159 30.3381C30.968 30.3384 30.9201 30.3428 30.8729 30.3511C30.8339 29.9967 30.6823 29.6641 30.4404 29.4022C30.1985 29.1402 29.8791 28.9626 29.5289 28.8955C29.1787 28.8284 28.8162 28.8753 28.4946 29.0293C28.173 29.1833 27.9092 29.4363 27.7419 29.7512C27.5701 29.732 27.3961 29.7494 27.2315 29.8021C27.0668 29.8549 26.9152 29.9419 26.7865 30.0573C26.6578 30.1728 26.5549 30.3142 26.4847 30.4722C26.4145 30.6302 26.3784 30.8012 26.3789 30.9741C26.3789 31.0101 26.3789 31.0451 26.3839 31.0801L31.8439 31.0761Z" fill="white"/>
<path d="M32.1596 31.3561H26.1276L26.1066 31.0991C26.1066 31.0561 26.1006 31.0131 26.1006 30.9701C26.1011 30.5736 26.2573 30.1931 26.5356 29.9106C26.814 29.6282 27.1921 29.4664 27.5886 29.4601C27.7968 29.1438 28.0926 28.8951 28.4399 28.7442C28.7871 28.5933 29.1708 28.5469 29.5441 28.6105C29.9173 28.6741 30.264 28.8451 30.5416 29.1025C30.8193 29.36 31.016 29.6927 31.1076 30.0601C31.3647 30.081 31.6067 30.1905 31.792 30.37C31.9773 30.5495 32.0945 30.7877 32.1236 31.0441L32.1596 31.3561ZM26.6776 30.7951H31.4236C31.3602 30.7285 31.2815 30.6784 31.1944 30.6492C31.1073 30.6199 31.0143 30.6123 30.9236 30.6271L30.6286 30.6781L30.5966 30.3781C30.5626 30.0848 30.436 29.81 30.2352 29.5936C30.0344 29.3772 29.7698 29.2305 29.4799 29.1748C29.19 29.119 28.8899 29.1571 28.6231 29.2836C28.3564 29.4101 28.1369 29.6184 27.9966 29.8781L27.9076 30.0451L27.7186 30.0241C27.6854 30.0204 27.652 30.0184 27.6186 30.0181C27.3972 30.0185 27.1828 30.0961 27.0125 30.2376C26.8422 30.379 26.7266 30.5755 26.6856 30.7931" fill="#6E84D5"/>
</svg>
