<svg width="16" height="18" viewBox="0 0 16 18" fill="none" xmlns="http://www.w3.org/2000/svg">
<path d="M9.60043 1.85517C9.76241 1.65733 9.9618 1.49336 10.1872 1.37257C10.4125 1.25178 10.6595 1.17655 10.9139 1.1512C11.1683 1.12584 11.4253 1.15085 11.67 1.2248C11.9148 1.29876 12.1426 1.42023 12.3405 1.58223C12.3865 1.62023 12.4315 1.66022 12.4735 1.70222L13.8634 2.79219C14.081 2.92632 14.27 3.10197 14.4196 3.30915C14.5693 3.51633 14.6767 3.75096 14.7356 3.99965C14.7946 4.24833 14.804 4.50624 14.7633 4.75856C14.7226 5.01087 14.6326 5.2527 14.4984 5.47023C14.4674 5.51923 14.4354 5.57017 14.3984 5.61317L6.10843 16.1882C5.97158 16.363 5.79717 16.5048 5.59811 16.6032C5.39906 16.7015 5.18044 16.7538 4.95844 16.7562L1.75845 16.7972L1.03745 13.6822C0.987358 13.4661 0.986222 13.2415 1.03415 13.0249C1.08208 12.8082 1.17786 12.605 1.31445 12.4302L9.60043 1.85517Z" stroke="#4E6ACB" stroke-width="1.5" stroke-linecap="round" stroke-linejoin="round"/>
<path d="M8.05273 3.83521L12.8467 7.5932" stroke="#4E6ACB" stroke-width="1.5" stroke-linecap="round" stroke-linejoin="round"/>
</svg>
