<svg width="21" height="18" viewBox="0 0 21 18" fill="none" xmlns="http://www.w3.org/2000/svg">
<path d="M10.643 16.612H6.05099C3.29599 16.612 1.45898 15.234 1.45898 12.02V5.592C1.45898 2.378 3.29599 1 6.05099 1H15.235C17.99 1 19.827 2.378 19.827 5.592V8.347" stroke="#90A2DE" stroke-linecap="round" stroke-linejoin="round"/>
<path d="M15.2348 6.05176L12.3638 8.35176C11.8657 8.72038 11.2624 8.91933 10.6428 8.91933C10.0231 8.91933 9.41986 8.72038 8.92178 8.35176L6.05078 6.05176" stroke="#E1E1E1" stroke-linecap="round" stroke-linejoin="round"/>
<path d="M17.2647 11.3491L14.0127 14.6001C13.8744 14.7533 13.7806 14.9414 13.7417 15.1441L13.5637 16.3871C13.5423 16.4834 13.5457 16.5836 13.5733 16.6783C13.6009 16.773 13.652 16.8593 13.7217 16.929C13.7915 16.9988 13.8777 17.0499 13.9725 17.0775C14.0672 17.1051 14.1673 17.1084 14.2637 17.0871L15.5067 16.9091C15.7093 16.8701 15.8975 16.7764 16.0507 16.6381L19.3017 13.3861C19.4637 13.2702 19.5958 13.1174 19.6869 12.9402C19.778 12.7631 19.8255 12.5668 19.8255 12.3676C19.8255 12.1684 19.778 11.972 19.6869 11.7949C19.5958 11.6178 19.4637 11.4649 19.3017 11.3491C19.1858 11.187 19.033 11.055 18.8559 10.9638C18.6787 10.8727 18.4824 10.8252 18.2832 10.8252C18.084 10.8252 17.8877 10.8727 17.7105 10.9638C17.5334 11.055 17.3805 11.187 17.2647 11.3491Z" stroke="#E1E1E1" stroke-linecap="round" stroke-linejoin="round"/>
<path d="M16.7959 11.8152C16.9328 12.3009 17.1921 12.7433 17.549 13.1001C17.9058 13.4569 18.3482 13.7162 18.8339 13.8532" stroke="#E1E1E1" stroke-linecap="round" stroke-linejoin="round"/>
</svg>
