<svg width="22" height="17" viewBox="0 0 22 17" fill="none" xmlns="http://www.w3.org/2000/svg">
<g clip-path="url(#clip0_380_881)">
<path d="M5.58363 14.1357C4.45407 14.0242 3.40342 13.5121 2.62569 12.6937C1.72043 11.7294 1.21729 10.4619 1.21729 9.14564C1.21729 7.82938 1.72043 6.56186 2.62569 5.59757L5.72663 2.37613C6.14649 1.9314 6.65083 1.57297 7.21079 1.32135C7.77076 1.06973 8.37536 0.929867 8.99001 0.909755C9.60465 0.889643 10.2173 0.989679 10.7928 1.20414C11.3683 1.4186 11.8955 1.74328 12.3441 2.15959C12.4162 2.22854 12.4871 2.29871 12.5568 2.37129C13.4615 3.33583 13.9643 4.60326 13.9643 5.91936C13.9643 7.23545 13.4615 8.50288 12.5568 9.46742L10.9996 11.086" stroke="#4E6ACB" stroke-width="1.5" stroke-linecap="round" stroke-linejoin="round"/>
<path d="M16.417 2.86719C17.5464 2.97926 18.5968 3.49135 19.375 4.30916C20.2802 5.27344 20.7834 6.54097 20.7834 7.85723C20.7834 9.17348 20.2802 10.441 19.375 11.4053L16.274 14.6316C15.4256 15.5273 14.2525 16.0528 13.0126 16.0925C11.7728 16.1322 10.5678 15.6828 9.66266 14.8433C9.59055 14.7743 9.51966 14.7042 9.44999 14.6316C8.54526 13.667 8.04248 12.3996 8.04248 11.0835C8.04248 9.76742 8.54526 8.49999 9.44999 7.53544L10.9999 5.92291" stroke="#4E6ACB" stroke-width="1.5" stroke-linecap="round" stroke-linejoin="round"/>
</g>
<defs>
<clipPath id="clip0_380_881">
<rect width="22" height="17" fill="white"/>
</clipPath>
</defs>
</svg>
