<svg width="47" height="47" viewBox="0 0 47 47" fill="none" xmlns="http://www.w3.org/2000/svg">
<rect width="46.6303" height="46.2602" rx="23.1301" fill="url(#paint0_linear_66_2)"/>
<path d="M30.7895 9.34693L30.4735 9.16489L30.1397 8.97267H30.1321C27.9808 7.80655 25.5715 7.19735 23.124 7.20067V14.5484C24.3485 14.5486 25.5535 14.8549 26.6293 15.4395C26.7389 15.4989 26.8472 15.5613 26.9542 15.6266C28.0044 16.268 28.8774 17.1616 29.4937 18.226L30.4774 17.6596L35.8659 14.5522C34.6343 12.4217 32.8893 10.6324 30.7895 9.34693Z" fill="white"/>
<path d="M16.1044 8.9696H16.0967L15.7641 9.16182L15.4392 9.34895C13.3465 10.6319 11.6063 12.4151 10.3755 14.5377L15.7654 17.6463L16.7478 18.2128C17.363 17.1549 18.2323 16.2668 19.2771 15.6286C19.3867 15.5611 19.4988 15.5013 19.611 15.4364H19.6199C20.6945 14.856 21.8972 14.5532 23.1188 14.5555V7.19759C20.6692 7.19321 18.2575 7.80245 16.1044 8.9696Z" fill="white"/>
<path d="M16.7468 18.2179L15.7644 17.6514L10.3745 14.5427C9.08719 16.7791 8.40967 19.3138 8.40967 21.8936C8.40967 24.4735 9.08719 27.0081 10.3745 29.2445L15.7644 26.1359L16.7468 25.5694C16.1032 24.4513 15.7644 23.1841 15.7644 21.8943C15.7644 20.6044 16.1032 19.3372 16.7468 18.2191V18.2179Z" fill="white"/>
<path d="M23.1188 30.3776V29.2409C21.8973 29.2425 20.6947 28.9397 19.6198 28.3599H19.6109C19.4988 28.2988 19.3867 28.2326 19.2771 28.1664C18.2309 27.5258 17.3611 26.6345 16.7465 25.5734L15.7641 26.1398L10.3743 29.2485C11.6043 31.3716 13.3447 33.1549 15.4379 34.4372L15.7628 34.6243L16.0954 34.8166H16.1031C18.2573 35.9804 20.6678 36.5899 23.1169 36.5899C25.5659 36.5899 27.9765 35.9804 30.1307 34.8166H30.1384L30.4722 34.6243L23.1188 30.3776Z" fill="url(#paint1_linear_66_2)"/>
<path d="M35.8623 14.5427L30.4737 17.6501L29.49 18.2166C30.1345 19.3344 30.4737 20.6017 30.4737 21.8917C30.4737 23.1817 30.1345 24.449 29.49 25.5668L23.119 21.8917V30.3762L30.4737 34.6178L37.4563 38.6456L37.8233 38.8581V21.8892C37.8286 19.3105 37.1522 16.7763 35.8623 14.5427Z" fill="white"/>
<defs>
<linearGradient id="paint0_linear_66_2" x1="23.3151" y1="0" x2="23.3151" y2="46.2602" gradientUnits="userSpaceOnUse">
<stop stop-color="#2B97DD"/>
<stop offset="1" stop-color="#595EC7"/>
</linearGradient>
<linearGradient id="paint1_linear_66_2" x1="17.0816" y1="31.0778" x2="37.0114" y2="31.0778" gradientUnits="userSpaceOnUse">
<stop stop-color="white"/>
<stop offset="0.411458" stop-color="#E6E6E6"/>
<stop offset="0.661458" stop-color="#D9D9D9"/>
<stop offset="1" stop-color="#999999"/>
</linearGradient>
</defs>
</svg>
