<svg width="297" height="83" viewBox="0 0 297 83" fill="none" xmlns="http://www.w3.org/2000/svg">
<g clip-path="url(#clip0_2_97)">
<path fill-rule="evenodd" clip-rule="evenodd" d="M244.712 17.3288L248.466 13.8333L252.22 17.3288V20.4285L248.466 16.9331L244.712 20.4285V17.3288Z" fill="#D4D4D4"/>
<path fill-rule="evenodd" clip-rule="evenodd" d="M244.712 22.9841L248.466 18.4499L252.22 22.9841V27.0071L248.466 22.4565L244.712 27.0071V22.9841Z" fill="#101041"/>
<path d="M99.2415 46.1661C102.929 42.8685 112.955 34.4597 118.339 29.8266H126.571L110.535 43.0334L128.266 63.907H120.035L105.777 46.6772L99.1921 51.8049V63.907H92.6067V13.1903H99.1921L99.2415 46.1661Z" fill="#101041"/>
<path d="M133.535 38.7135V29.2825H139.807C139.906 30.3212 140.054 33.9485 140.054 37.0812C141.195 34.3666 143.137 32.0656 145.619 30.4861C148.079 28.9427 150.951 28.1891 153.851 28.3262V34.6246C145.965 34.6246 139.972 39.3071 139.972 49.4636V63.907H133.601L133.535 38.7135Z" fill="#101041"/>
<path d="M164.239 47.584C164.236 49.0852 164.535 50.5716 165.117 51.9549C165.699 53.3382 166.553 54.59 167.629 55.636C168.704 56.682 169.978 57.5008 171.375 58.0436C172.773 58.5864 174.265 58.8422 175.763 58.7958C181.048 58.7958 183.995 56.6524 185.79 53.3713H192.161C190.334 58.4001 185.576 63.907 175.434 63.907C163.317 63.907 157.785 55.086 157.785 46.2155C157.785 36.026 164.601 28.3262 175.286 28.3262C188.127 28.3262 192.655 37.6913 192.655 45.9188V47.5675L164.239 47.584ZM186.037 43.0828C185.757 39.0763 183.616 33.1901 175.253 33.1901C168.289 33.1901 164.914 37.5099 164.338 43.0828H186.037Z" fill="#101041"/>
<path d="M233.451 13.1903V53.2888C233.451 56.5864 233.451 59.884 233.451 62.9672H227.343C227.162 61.5822 227.113 59.5212 227.08 57.856C225.434 60.7084 222.536 63.907 214.798 63.907C205.151 63.907 198.598 56.6359 198.598 46.4464C198.598 35.383 206.83 28.4746 215.572 28.4746C223.425 28.4746 226.141 32.036 227.096 33.6353V13.1903H233.451ZM205.134 46.3639C205.134 52.5634 208.871 58.6804 216.148 58.6804C224.116 58.6804 227.393 53.5361 227.393 46.1001C227.393 38.6641 224.775 33.7507 216.379 33.7507C208.822 33.7507 205.134 40.082 205.134 46.4299V46.3639Z" fill="#101041"/>
<path d="M251.281 28.9857H246.013V63.907H251.281V28.9857Z" fill="#101041"/>
<path d="M293.378 75.8443C292.635 75.8423 291.91 76.0712 291.303 76.4994C290.695 76.9276 290.235 77.534 289.987 78.235V79.1418H296.572V77.8063C296.267 77.2199 295.809 76.7275 295.247 76.3819C294.684 76.0363 294.038 75.8504 293.378 75.8443ZM290.085 29.3649C290.003 30.4366 289.921 32.1184 289.921 34.3113C289.098 32.4811 285.821 28.3756 277.491 28.3756C268.798 28.3756 259.776 35.2016 259.776 47.1389C259.776 57.3778 267.135 64.8963 276.865 64.8963C284.323 64.8963 287.879 61.978 289.921 58.6309V75.9597C290.334 75.5038 290.835 75.136 291.394 74.8784C291.952 74.6207 292.557 74.4783 293.171 74.4599C293.786 74.4414 294.398 74.5472 294.971 74.7709C295.544 74.9946 296.066 75.3316 296.506 75.7618V39.0433C296.506 35.7457 296.506 32.1349 296.506 29.2825L290.085 29.3649ZM278.084 59.3564C271.136 59.3564 266.674 53.8659 266.674 46.7432C266.674 39.6204 270.51 33.8496 278.643 33.8496C286.776 33.8496 290.168 39.1587 290.168 46.5288C290.118 54.8882 285.904 59.3564 278.084 59.3564Z" fill="#101041"/>
<path d="M297 79.3892C296.938 80.3068 296.53 81.1666 295.86 81.7947C295.189 82.4227 294.305 82.7721 293.386 82.7721C292.468 82.7721 291.584 82.4227 290.913 81.7947C290.242 81.1666 289.834 80.3068 289.773 79.3892C289.777 78.9681 289.849 78.5504 289.987 78.1526C290.249 77.467 290.714 76.8783 291.321 76.4656C291.927 76.0529 292.645 75.8361 293.378 75.8443C294.055 75.8322 294.721 76.0095 295.303 76.3561C295.885 76.7027 296.358 77.2049 296.671 77.8063C296.896 78.3031 297.008 78.8437 297 79.3892Z" fill="white"/>
<path d="M297 79.3892C296.938 80.3068 296.53 81.1666 295.86 81.7947C295.189 82.4227 294.305 82.7721 293.386 82.7721C292.468 82.7721 291.584 82.4227 290.913 81.7947C290.242 81.1666 289.834 80.3068 289.773 79.3892C289.777 78.9681 289.849 78.5504 289.987 78.1526C290.249 77.467 290.714 76.8783 291.321 76.4656C291.927 76.0529 292.645 75.8361 293.378 75.8443C294.055 75.8322 294.721 76.0095 295.303 76.3561C295.885 76.7027 296.358 77.2049 296.671 77.8063C296.896 78.3031 297.008 78.8437 297 79.3892Z" fill="#318FDA"/>
<path d="M41.1585 0H41.8171C52.733 0 63.2018 4.34278 70.9206 12.073C78.6393 19.8032 82.9756 30.2876 82.9756 41.2197C82.9756 52.1518 78.6393 62.6362 70.9206 70.3664C63.2018 78.0966 52.733 82.4394 41.8171 82.4394H41.1585C30.2426 82.4394 19.7738 78.0966 12.0551 70.3664C4.33633 62.6362 0 52.1518 0 41.2197C0 30.2876 4.33633 19.8032 12.0551 12.073C19.7738 4.34278 30.2426 0 41.1585 0Z" fill="url(#paint0_linear_2_97)"/>
<path d="M54.7244 16.6363L54.1646 16.3065L53.572 15.9768C49.7613 13.9044 45.4948 12.8163 41.1585 12.8111V25.9025C43.3379 25.9225 45.4775 26.4894 47.3817 27.5513L47.9579 27.881C49.829 29.0179 51.3812 30.6121 52.4689 32.5141L54.2305 31.5083L63.7957 25.9684C61.6017 22.1448 58.4821 18.9355 54.7244 16.6363Z" fill="white"/>
<path d="M28.6299 15.9603L27.9878 16.3065L27.4116 16.6363C23.6927 18.9198 20.5982 22.0924 18.4061 25.8695L27.9878 31.4094L29.7329 32.4152C30.8288 30.5337 32.373 28.9532 34.2274 27.8151L34.8201 27.4853C36.7243 26.4235 38.8639 25.8566 41.0433 25.8365V12.8111C36.7087 12.8133 32.4428 13.8956 28.6299 15.9603Z" fill="white"/>
<path d="M29.7658 32.4317L27.9878 31.4259L18.439 25.886C16.1523 29.8659 14.9488 34.3773 14.9488 38.9691C14.9488 43.5609 16.1523 48.0723 18.439 52.0522L27.9878 46.5288L29.7329 45.523C28.5952 43.5297 27.9968 41.2734 27.9968 38.9774C27.9968 36.6813 28.5952 34.425 29.7329 32.4317H29.7658Z" fill="white"/>
<path d="M41.1585 54.0803V52.0522C38.9869 52.0519 36.8491 51.5138 34.9354 50.4859L34.3427 50.1397C32.4805 49.004 30.9346 47.4161 29.8482 45.523L27.9878 46.5288L18.439 52.0687C20.6312 55.8458 23.7256 59.0185 27.4445 61.3019L28.0207 61.6317L28.6134 61.978C32.4452 64.0388 36.7269 65.1174 41.0762 65.1174C45.4256 65.1174 49.7073 64.0388 53.539 61.978L54.1317 61.6317L41.1585 54.0803Z" fill="url(#paint1_linear_2_97)"/>
<path d="M63.7463 25.886L54.1646 31.4259L52.4195 32.4317C53.5622 34.4204 54.1635 36.6747 54.1635 38.9691C54.1635 41.2636 53.5622 43.5178 52.4195 45.5066L41.0927 38.9114V54.0803L54.1646 61.6152L66.578 68.7875L67.2366 69.1667V38.9609C67.2375 34.3715 66.0338 29.8626 63.7463 25.886Z" fill="white"/>
</g>
<defs>
<linearGradient id="paint0_linear_2_97" x1="41.4384" y1="0" x2="41.4384" y2="82.3405" gradientUnits="userSpaceOnUse">
<stop stop-color="#2B97DD"/>
<stop offset="1" stop-color="#595EC7"/>
</linearGradient>
<linearGradient id="paint1_linear_2_97" x1="30.3585" y1="55.3333" x2="65.7878" y2="55.3333" gradientUnits="userSpaceOnUse">
<stop stop-color="white"/>
<stop offset="0.41" stop-color="#E6E6E6"/>
<stop offset="0.66" stop-color="#D9D9D9"/>
<stop offset="1" stop-color="#999999"/>
</linearGradient>
<clipPath id="clip0_2_97">
<rect width="297" height="83" fill="white"/>
</clipPath>
</defs>
</svg>
