<svg width="23" height="26" viewBox="0 0 23 26" fill="none" xmlns="http://www.w3.org/2000/svg">
<path d="M1.14162 15.1671V14.9011C1.18099 14.1139 1.43254 13.352 1.86962 12.6961C2.6008 11.9105 3.10385 10.9404 3.32462 9.89009C3.32462 9.08209 3.32462 8.26209 3.39462 7.45309C3.75562 3.56109 7.60262 0.871094 11.4036 0.871094H11.4986C15.2986 0.871094 19.1466 3.56109 19.5246 7.45309C19.5946 8.26109 19.5246 9.08109 19.5836 9.89009C19.8058 10.9421 20.3062 11.9153 21.0326 12.7081C21.4732 13.3582 21.7252 14.1176 21.7606 14.9021V15.1551C21.7865 16.2146 21.4221 17.2467 20.7366 18.0551C19.8223 19.0117 18.5917 19.6037 17.2736 19.7211C13.3974 20.1371 9.48782 20.1371 5.61162 19.7211C4.29765 19.5974 3.07134 19.0075 2.15462 18.0581C1.47895 17.2484 1.11913 16.2215 1.14162 15.1671Z" stroke="#4E6ACB" stroke-linecap="round" stroke-linejoin="round"/>
<path d="M8.48633 23.7341C9.1005 24.4968 9.9897 24.9877 10.9623 25.101C11.935 25.2144 12.9132 24.9411 13.6863 24.3401C13.9229 24.1656 14.1366 23.962 14.3223 23.7341" stroke="#4E6ACB" stroke-linecap="round" stroke-linejoin="round"/>
</svg>
