<svg xmlns="http://www.w3.org/2000/svg" width="44.894" height="59.615" viewBox="0 0 44.894 59.615">
  <g id="Group_63369" data-name="Group 63369" transform="translate(-768.964 -81.696)">
    <path id="Path_1037" data-name="Path 1037" d="M815.074,122.532q0-13.513,0-27.03c-3.68,0-7.358.011-11.037,0a2.456,2.456,0,0,1-2.734-2.734q0-5.517,0-11.037l-28.084,0c-1.758,0-2.306.544-2.306,2.294q0,19.886,0,39.772c.219.011.438.034.657.034q21.614,0,43.225,0c.157,0,.313-.011.47-.017A2.23,2.23,0,0,1,815.074,122.532Zm-9.726-10.8a5.274,5.274,0,0,1-5.572-2.111,1.385,1.385,0,0,0-1.592-.54,60.123,60.123,0,0,0-8.5,2.475,1.614,1.614,0,0,0-1.022.988,27.084,27.084,0,0,1-3.589,6.5,7.122,7.122,0,0,1-1.784,1.664,3.093,3.093,0,0,1-4.177-.548,2.791,2.791,0,0,1,.074-3.928,15.428,15.428,0,0,1,6.361-4.432,5.153,5.153,0,0,0,3.235-3.506c1.12-3.5,2.256-7,3.165-10.561a1.8,1.8,0,0,0-.113-1.265,24.924,24.924,0,0,1-1.722-4.879,8.285,8.285,0,0,1-.138-2.44,2.4,2.4,0,0,1,1.775-2.2,2.325,2.325,0,0,1,2.189,1.348,7.74,7.74,0,0,1,.5,4.879,3.571,3.571,0,0,1-.174.923c-.827,2.054-.308,3.85.816,5.665,1.424,2.3,2.744,4.658,4.284,6.885.327.472.663.738,1.082.608a14.433,14.433,0,0,1,4.39-.053c.185.034.372.059.553.1,1.4.355,2.243,1.137,2.241,2.087A2.749,2.749,0,0,1,805.348,111.733Z" transform="translate(-1.579 -0.037)" fill="#eef2f4"/>
    <path id="Path_1038" data-name="Path 1038" d="M813.684,304.53c-.157.006-.313.017-.47.017q-21.614,0-43.225,0c-.219,0-.438-.023-.657-.034-.534.172-.328.623-.328.959q-.02,6.885-.008,13.773c0,1.947.874,2.815,2.825,2.817q19.623,0,39.243,0c1.883,0,2.776-.889,2.778-2.764q.006-6.934,0-13.867C813.839,305.125,813.937,304.794,813.684,304.53Zm-27.9,6.815a3.065,3.065,0,0,1-3.176,2.832c-.818,0-1.027.289-.976,1.04.055.814,0,1.633.013,2.449.008.614-.21,1.114-.861,1.127-.712.013-.925-.512-.922-1.161.01-1.445,0-2.889,0-4.333,0-1.414.017-2.829-.008-4.241-.015-.867.359-1.3,1.231-1.273a14.856,14.856,0,0,1,1.969.093A3.1,3.1,0,0,1,785.78,311.345Zm4.806,7.479c-.752.045-1.507.021-2.258.008-.706-.013-1.11-.334-1.108-1.1q.014-4.421,0-8.846c0-.759.393-1.082,1.1-1.1.408-.013.816,0,1.32,0a5.714,5.714,0,0,1,5.557,2.661A5.5,5.5,0,0,1,790.585,318.824Zm11.369-4.636c-.062,0-.126,0-.189,0-.767.085-1.76-.353-2.249.215-.463.542-.108,1.511-.145,2.29-.021.406.017.818-.021,1.224a.821.821,0,0,1-.954.814.764.764,0,0,1-.8-.852c-.011-1.477,0-2.951,0-4.428h-.024c0-1.507,0-3.014,0-4.52,0-.85.459-1.169,1.254-1.158,1,.011,2.011-.006,3.016.006.636.008,1.139.227,1.112.972-.025.68-.481.9-1.1.88a5.139,5.139,0,0,0-.661,0c-.582.062-1.4-.3-1.7.168-.389.6-.117,1.461-.117,2.209,0,.4.331.4.617.4.659.006,1.32,0,1.979.008.589.006.986.272.978.9S802.543,314.19,801.954,314.188Z" transform="translate(0 -180.751)" fill="#f0796d"/>
    <path id="Path_1040" data-name="Path 1040" d="M837.309,129.622c-.181-.045-.368-.07-.553-.1a14.432,14.432,0,0,0-4.39.053c-.419.13-.755-.136-1.082-.608-1.541-2.226-2.861-4.587-4.284-6.884-1.124-1.815-1.643-3.61-.816-5.665a3.574,3.574,0,0,0,.174-.923,7.739,7.739,0,0,0-.5-4.879,2.325,2.325,0,0,0-2.188-1.348,2.4,2.4,0,0,0-1.775,2.2,8.285,8.285,0,0,0,.138,2.44,24.927,24.927,0,0,0,1.722,4.879,1.8,1.8,0,0,1,.113,1.265c-.908,3.565-2.045,7.058-3.165,10.561a5.153,5.153,0,0,1-3.234,3.506,15.428,15.428,0,0,0-6.362,4.432,2.791,2.791,0,0,0-.074,3.928,3.093,3.093,0,0,0,4.177.548A7.123,7.123,0,0,0,817,141.358a27.093,27.093,0,0,0,3.59-6.5,1.613,1.613,0,0,1,1.021-.988,60.127,60.127,0,0,1,8.5-2.475,1.385,1.385,0,0,1,1.592.54,5.274,5.274,0,0,0,5.572,2.111,2.749,2.749,0,0,0,2.279-2.336C839.552,130.759,838.712,129.977,837.309,129.622Zm-18.622,5.814a16.686,16.686,0,0,1-3.671,5.944c-.976.92-1.858.982-2.685.315a1.241,1.241,0,0,1-.387-1.737,3.506,3.506,0,0,1,.406-.629,18.08,18.08,0,0,1,6.243-4.177C818.653,135.325,818.7,135.395,818.687,135.436Zm4.579-23.344a2.032,2.032,0,0,1,.093-.555c.079-.344.185-.723.587-.763.357-.036.521.312.667.583a5.511,5.511,0,0,1,.408,3.314c-.079.685-.223,1.361-.338,2.041A10.041,10.041,0,0,1,823.266,112.092Zm6.293,17.959a59.755,59.755,0,0,0-7.915,2.23c1.3-3.62,2.4-7.071,3.3-10.568.345-.049.366.234.455.4a83.3,83.3,0,0,0,4.337,7.158C829.971,129.611,830.223,129.928,829.56,130.051Zm7.81,2.413c-1.36.714-3.2.145-4.475-1.46a10.788,10.788,0,0,1,4.405.126c.321.087.731.211.742.619C838.051,132.137,837.673,132.306,837.37,132.464Z" transform="translate(-33.502 -22.348)" fill="#ef7a6e"/>
  </g>
</svg>
