<svg id="Search" xmlns="http://www.w3.org/2000/svg" width="14" height="14" viewBox="0 0 14 14">
  <path id="Search-2" data-name="Search" d="M13.174,13.9l-.058-.049-2.189-2.135a6.791,6.791,0,0,1-4.2,1.442A6.662,6.662,0,0,1,0,6.58,6.663,6.663,0,0,1,6.728,0a6.663,6.663,0,0,1,6.728,6.58,6.475,6.475,0,0,1-1.772,4.445l2.164,2.11a.5.5,0,0,1,0,.717.527.527,0,0,1-.675.05ZM1.036,6.58a5.636,5.636,0,0,0,5.691,5.566A5.636,5.636,0,0,0,12.42,6.58,5.636,5.636,0,0,0,6.728,1.014,5.636,5.636,0,0,0,1.036,6.58Z" fill="#066"/>
</svg>
