<svg width="22" height="22" viewBox="0 0 22 22" fill="none" xmlns="http://www.w3.org/2000/svg">
<path d="M17.0487 6.12799C16.9851 6.12199 16.9212 6.12199 16.8577 6.12799C16.194 6.10538 15.5653 5.82531 15.1046 5.34708C14.6439 4.86884 14.3875 4.23004 14.3897 3.56601C14.3895 3.22892 14.4559 2.8951 14.5849 2.58365C14.7138 2.2722 14.9029 1.98923 15.1413 1.75092C15.3797 1.5126 15.6628 1.32361 15.9743 1.19476C16.2858 1.06592 16.6196 0.999738 16.9567 1C17.6374 1.00027 18.2902 1.27079 18.7716 1.75214C19.2529 2.23349 19.5234 2.88626 19.5237 3.56699C19.5236 4.23142 19.2654 4.86985 18.8037 5.34763C18.3419 5.8254 17.7127 6.10518 17.0487 6.12799Z" stroke="#4E6ACB" stroke-linecap="round" stroke-linejoin="round"/>
<path d="M16.028 13.3619C17.377 13.6142 18.7717 13.3611 19.946 12.6509C20.2604 12.4926 20.5246 12.2501 20.7092 11.9505C20.8938 11.6508 20.9915 11.3058 20.9915 10.9539C20.9915 10.602 20.8938 10.2569 20.7092 9.95728C20.5246 9.65764 20.2604 9.41516 19.946 9.25687C18.7615 8.54532 17.356 8.29608 15.999 8.55689" stroke="#4E6ACB" stroke-linecap="round" stroke-linejoin="round"/>
<path d="M4.94177 6.12799C5.0053 6.12199 5.06923 6.12199 5.13275 6.12799C5.79658 6.10564 6.42564 5.82567 6.88654 5.34741C7.34744 4.86915 7.60394 4.23021 7.60175 3.56601C7.60188 3.22892 7.53559 2.8951 7.40662 2.58365C7.27765 2.2722 7.08857 1.98923 6.85016 1.75092C6.61175 1.5126 6.32871 1.32361 6.01721 1.19476C5.70572 1.06592 5.37182 0.999738 5.03473 1C4.35408 1.00053 3.70151 1.27115 3.22021 1.75244C2.73892 2.23373 2.4683 2.88634 2.46777 3.56699C2.46814 4.23117 2.72622 4.86932 3.18768 5.34702C3.64915 5.82471 4.278 6.10468 4.94177 6.12799Z" stroke="#4E6ACB" stroke-linecap="round" stroke-linejoin="round"/>
<path d="M5.96448 13.3619C4.61516 13.6143 3.22013 13.3612 2.04547 12.6509C1.73113 12.4926 1.46695 12.2501 1.28235 11.9505C1.09775 11.6508 1 11.3058 1 10.9539C1 10.602 1.09775 10.2569 1.28235 9.95728C1.46695 9.65764 1.73113 9.41516 2.04547 9.25687C3.23 8.54532 4.63552 8.29608 5.99249 8.55689" stroke="#4E6ACB" stroke-linecap="round" stroke-linejoin="round"/>
<path d="M11.0086 13.679C10.9451 13.6741 10.8812 13.6741 10.8176 13.679C10.1541 13.6567 9.5253 13.3768 9.06459 12.8987C8.60388 12.4207 8.34743 11.782 8.34962 11.118C8.34923 10.7808 8.41535 10.4467 8.5442 10.1351C8.67306 9.82339 8.86211 9.54019 9.10054 9.30167C9.33897 9.06314 9.6221 8.87397 9.93373 8.745C10.2454 8.61602 10.5794 8.54979 10.9166 8.55005C11.5975 8.55031 12.2504 8.82099 12.7318 9.30255C13.2132 9.78412 13.4837 10.4371 13.4837 11.118C13.4835 11.7825 13.2254 12.4209 12.7636 12.8987C12.3019 13.3764 11.6727 13.6562 11.0086 13.679Z" stroke="#EBB700" stroke-linecap="round" stroke-linejoin="round"/>
<path d="M8.11774 16.808C7.8034 16.9663 7.53922 17.2088 7.35461 17.5085C7.17001 17.8081 7.07227 18.1531 7.07227 18.505C7.07227 18.857 7.17001 19.202 7.35461 19.5016C7.53922 19.8013 7.8034 20.0438 8.11774 20.2021C8.99252 20.7244 9.99237 21.0002 11.0112 21.0002C12.0301 21.0002 13.0299 20.7244 13.9047 20.2021C14.2191 20.0438 14.4833 19.8013 14.6679 19.5016C14.8525 19.202 14.9503 18.857 14.9503 18.505C14.9503 18.1531 14.8525 17.8081 14.6679 17.5085C14.4833 17.2088 14.2191 16.9663 13.9047 16.808C13.0288 16.289 12.0294 16.0151 11.0112 16.0151C9.99307 16.0151 8.99366 16.289 8.11774 16.808Z" stroke="#EBB700" stroke-linecap="round" stroke-linejoin="round"/>
</svg>
