<svg width="20" height="18" viewBox="0 0 20 18" fill="none" xmlns="http://www.w3.org/2000/svg">
<path d="M10.184 16.612H5.59201C2.83701 16.612 1 15.234 1 12.02V5.592C1 2.378 2.83701 1 5.59201 1H14.776C17.531 1 19.368 2.378 19.368 5.592V8.347" stroke="#4E6ACB" stroke-linecap="round" stroke-linejoin="round"/>
<path d="M14.7758 6.05176L11.9048 8.35176C11.4067 8.72038 10.8035 8.91933 10.1838 8.91933C9.56416 8.91933 8.96088 8.72038 8.4628 8.35176L5.5918 6.05176" stroke="#EBB700" stroke-linecap="round" stroke-linejoin="round"/>
<path d="M16.8057 11.3491L13.5537 14.6001C13.4154 14.7533 13.3217 14.9414 13.2827 15.1441L13.1047 16.3871C13.0834 16.4834 13.0867 16.5836 13.1143 16.6783C13.1419 16.773 13.193 16.8593 13.2627 16.929C13.3325 16.9988 13.4187 17.0499 13.5135 17.0775C13.6082 17.1051 13.7084 17.1084 13.8047 17.0871L15.0477 16.9091C15.2504 16.8701 15.4385 16.7764 15.5917 16.6381L18.8427 13.3861C19.0047 13.2702 19.1368 13.1174 19.2279 12.9402C19.319 12.7631 19.3666 12.5668 19.3666 12.3676C19.3666 12.1684 19.319 11.972 19.2279 11.7949C19.1368 11.6178 19.0047 11.4649 18.8427 11.3491C18.7268 11.187 18.574 11.055 18.3969 10.9638C18.2197 10.8727 18.0234 10.8252 17.8242 10.8252C17.625 10.8252 17.4287 10.8727 17.2515 10.9638C17.0744 11.055 16.9216 11.187 16.8057 11.3491Z" stroke="#EBB700" stroke-linecap="round" stroke-linejoin="round"/>
<path d="M16.3369 11.8152C16.4739 12.3009 16.7331 12.7433 17.09 13.1001C17.4468 13.4569 17.8892 13.7162 18.3749 13.8532" stroke="#EBB700" stroke-linecap="round" stroke-linejoin="round"/>
</svg>
