<svg width="22" height="22" viewBox="0 0 22 22" fill="none" xmlns="http://www.w3.org/2000/svg">
<path d="M15 1H7C3.68629 1 1 3.68629 1 7V15C1 18.3137 3.68629 21 7 21H15C18.3137 21 21 18.3137 21 15V7C21 3.68629 18.3137 1 15 1Z" stroke="#4E6ACB" stroke-linecap="round" stroke-linejoin="round"/>
<path d="M10.8149 17.4241C10.5969 17.425 10.3809 17.3827 10.1794 17.2997C9.97789 17.2166 9.79486 17.0944 9.6409 16.9401C9.49734 16.7978 9.38338 16.6285 9.30563 16.4419C9.22788 16.2553 9.18786 16.0552 9.1879 15.8531L9.1819 15.7611C9.17048 15.6678 9.1391 15.5781 9.0899 15.4981C9.04263 15.4187 8.98013 15.3495 8.90598 15.2944C8.83184 15.2393 8.74753 15.1994 8.6579 15.1771C8.59978 15.1619 8.53997 15.1541 8.4799 15.1541C8.34516 15.1553 8.21309 15.1918 8.0969 15.2601L7.9869 15.3141C7.63527 15.4687 7.24099 15.4969 6.8709 15.3941C6.45819 15.2803 6.10707 15.0083 5.8939 14.6371L5.4939 13.9661L5.4409 13.8661C5.26895 13.5058 5.24011 13.0937 5.3602 12.713C5.48029 12.3324 5.74036 12.0114 6.0879 11.8151L6.1509 11.7771C6.24474 11.7134 6.3217 11.6279 6.37518 11.5279C6.42866 11.4279 6.45705 11.3164 6.4579 11.2031C6.45716 11.0764 6.42245 10.9522 6.35736 10.8435C6.29228 10.7348 6.19923 10.6455 6.0879 10.5851L5.9879 10.5251C5.65123 10.3004 5.41397 9.95475 5.32534 9.55983C5.23671 9.16491 5.30352 8.75103 5.5119 8.40405L5.9119 7.75305C6.05899 7.50832 6.26707 7.30595 6.51579 7.16573C6.76452 7.0255 7.04537 6.95222 7.3309 6.95305C7.6086 6.95299 7.88166 7.02426 8.1239 7.16005L8.2069 7.20305C8.29031 7.24052 8.38048 7.26059 8.4719 7.26205C8.56475 7.26297 8.65687 7.2456 8.743 7.21092C8.82913 7.17624 8.90758 7.12494 8.97389 7.05994C9.04019 6.99493 9.09304 6.91751 9.12941 6.83208C9.16579 6.74665 9.18499 6.6549 9.1859 6.56205L9.1909 6.44205C9.22375 6.06441 9.39085 5.71105 9.6619 5.44605C9.97056 5.14564 10.3842 4.97739 10.8149 4.97705H11.5879C12.0255 4.97815 12.445 5.15212 12.7549 5.46105C12.9023 5.60693 13.019 5.78082 13.0981 5.97248C13.1773 6.16413 13.2174 6.36969 13.2159 6.57705L13.2209 6.66905C13.2318 6.76056 13.2625 6.8486 13.3109 6.92705C13.3732 7.03291 13.4618 7.1208 13.5682 7.18214C13.6746 7.24349 13.7951 7.27619 13.9179 7.27705C14.0528 7.27601 14.185 7.23908 14.3009 7.17005L14.4009 7.11805C14.7706 6.94761 15.1903 6.9197 15.5793 7.03966C15.9683 7.15961 16.2994 7.419 16.5089 7.76805L16.8899 8.41705C16.9 8.43414 16.909 8.45184 16.9169 8.47005L16.9519 8.53905C17.1142 8.8822 17.1479 9.27221 17.047 9.63813C16.9461 10.0041 16.7172 10.3216 16.4019 10.5331L16.2419 10.6331C16.1577 10.6905 16.0873 10.766 16.0359 10.8541C15.9886 10.9325 15.9577 11.0198 15.9452 11.1106C15.9326 11.2013 15.9386 11.2937 15.9629 11.3821C15.9889 11.4738 16.0331 11.5593 16.0929 11.6335C16.1527 11.7077 16.2268 11.7691 16.3109 11.8141L16.4109 11.8801C16.7247 12.0942 16.9516 12.4134 17.0509 12.7801C17.1064 12.9822 17.1206 13.1934 17.0926 13.4012C17.0646 13.6089 16.995 13.8088 16.8879 13.9891L16.4769 14.6591L16.4149 14.7531C16.2618 14.9667 16.0599 15.1407 15.8259 15.2606C15.592 15.3804 15.3328 15.4426 15.0699 15.4421C14.7959 15.4415 14.5266 15.3705 14.2879 15.2361L14.2029 15.1931C14.1174 15.1552 14.0254 15.1342 13.9319 15.1311C13.7455 15.1297 13.566 15.2015 13.4319 15.3311C13.3641 15.3982 13.3108 15.4786 13.2752 15.5672C13.2396 15.6557 13.2225 15.7506 13.2249 15.8461L13.2199 15.9531C13.1805 16.3577 12.9912 16.7329 12.6892 17.0051C12.3873 17.2773 11.9944 17.4267 11.5879 17.4241H10.8149ZM8.8969 14.3051C9.30953 14.412 9.6632 14.6776 9.8809 15.0441C9.99762 15.2379 10.0703 15.455 10.0939 15.6801L10.1059 15.9001C10.1264 16.0731 10.2101 16.2324 10.341 16.3474C10.4719 16.4625 10.6407 16.525 10.8149 16.5231H11.5879C11.7627 16.5266 11.9324 16.4646 12.0638 16.3494C12.1952 16.2341 12.2787 16.0738 12.2979 15.9001V15.8321C12.2978 15.6207 12.3398 15.4115 12.4215 15.2166C12.5033 15.0217 12.6231 14.8451 12.7739 14.6971C13.0837 14.3949 13.5002 14.2271 13.9329 14.2301H13.9419C14.1671 14.2361 14.3887 14.2871 14.5939 14.3801L14.7939 14.4801C14.8852 14.5192 14.9836 14.5393 15.0829 14.5391C15.1939 14.5402 15.3035 14.515 15.4028 14.4654C15.502 14.4159 15.5881 14.3434 15.6539 14.2541L15.6989 14.1851L16.0989 13.5301C16.1862 13.3827 16.2152 13.208 16.1802 13.0404C16.1452 12.8727 16.0488 12.7242 15.9099 12.6241L15.7399 12.5191C15.4163 12.3061 15.1813 11.9826 15.0789 11.6091C15.0244 11.4065 15.0109 11.1952 15.0392 10.9874C15.0675 10.7796 15.1371 10.5796 15.2439 10.3991C15.367 10.1906 15.5355 10.0125 15.7369 9.87805L15.8369 9.81605C15.9875 9.73262 16.1014 9.59574 16.156 9.43245C16.2106 9.26915 16.202 9.09131 16.1319 8.93405L16.0879 8.85105L16.0799 8.83405L15.7159 8.21505C15.6513 8.10638 15.5593 8.01658 15.4491 7.95463C15.3389 7.89268 15.2143 7.86076 15.0879 7.86205C15.0155 7.86198 14.9436 7.87346 14.8749 7.89605L14.8059 7.92305L14.7419 7.95505C14.3681 8.16931 13.9256 8.22991 13.5079 8.12405C13.0932 8.01902 12.7363 7.75547 12.5139 7.39005C12.3972 7.19621 12.3245 6.97909 12.3009 6.75405L12.2969 6.59705C12.2992 6.50346 12.2826 6.41037 12.2483 6.32329C12.2139 6.2362 12.1624 6.15689 12.0969 6.09005C11.9621 5.95455 11.7791 5.87797 11.5879 5.87705H10.8149C10.6284 5.87547 10.4488 5.94731 10.3149 6.07705C10.2032 6.18716 10.1326 6.33222 10.1149 6.48805L10.1069 6.67805C10.0842 6.93762 9.99922 7.18788 9.85913 7.40757C9.71904 7.62727 9.52799 7.8099 9.30222 7.93997C9.07644 8.07003 8.82261 8.14369 8.56229 8.15467C8.30196 8.16565 8.04283 8.11364 7.8069 8.00305L7.6879 7.94605C7.5804 7.88571 7.45918 7.85403 7.3359 7.85405C7.20939 7.85452 7.08518 7.88785 6.97544 7.95079C6.8657 8.01372 6.77419 8.1041 6.7099 8.21305L6.3099 8.86305C6.2197 9.0109 6.18895 9.18745 6.22384 9.35709C6.25873 9.52672 6.35668 9.67681 6.4979 9.77705L6.6599 9.87705C6.87974 10.0209 7.06042 10.2171 7.18574 10.448C7.31105 10.6789 7.37708 10.9373 7.3779 11.2001C7.37563 11.4629 7.30889 11.7211 7.18353 11.9522C7.05817 12.1832 6.87802 12.3799 6.6589 12.5251L6.5589 12.5851C6.408 12.6674 6.29382 12.8038 6.23929 12.9668C6.18476 13.1299 6.19391 13.3075 6.2649 13.4641L6.2999 13.5301L6.6919 14.1921C6.73782 14.273 6.79926 14.3441 6.8727 14.4012C6.94615 14.4584 7.03016 14.5004 7.1199 14.5251C7.18505 14.543 7.25232 14.5521 7.3199 14.5521C7.41184 14.5531 7.50303 14.5354 7.5879 14.5001L7.6559 14.4681C8.03107 14.254 8.47527 14.1959 8.8929 14.3061L8.8969 14.3051ZM9.1269 11.2051C9.11776 10.7926 9.23173 10.3867 9.45426 10.0393C9.67679 9.6919 9.99779 9.41867 10.3763 9.2545C10.7548 9.09032 11.1736 9.04265 11.5793 9.11756C11.9851 9.19247 12.3593 9.38658 12.6542 9.67509C12.9491 9.96361 13.1513 10.3335 13.2351 10.7374C13.3189 11.1414 13.2804 11.5612 13.1246 11.9432C12.9688 12.3252 12.7026 12.6521 12.3602 12.8822C12.0177 13.1123 11.6145 13.2351 11.2019 13.2351C10.657 13.2399 10.1325 13.0283 9.74349 12.6467C9.35446 12.2652 9.13271 11.7449 9.1269 11.2001V11.2051ZM10.0469 11.2051C10.0429 11.4348 10.1074 11.6605 10.2322 11.8534C10.357 12.0463 10.5364 12.1977 10.7476 12.2883C10.9587 12.3789 11.1921 12.4046 11.4178 12.3621C11.6436 12.3195 11.8517 12.2108 12.0154 12.0496C12.1791 11.8884 12.2912 11.6821 12.3372 11.457C12.3833 11.2319 12.3613 10.9982 12.274 10.7856C12.1868 10.5731 12.0382 10.3913 11.8473 10.2635C11.6563 10.1357 11.4317 10.0677 11.2019 10.0681C10.8986 10.0654 10.6067 10.183 10.39 10.3952C10.1733 10.6074 10.0496 10.8968 10.0459 11.2001L10.0469 11.2051Z" fill="#EBB700"/>
</svg>
