<svg width="20" height="17" viewBox="0 0 20 17" fill="none" xmlns="http://www.w3.org/2000/svg">
<path d="M4.67383 10.1431H10.1838" stroke="#EBB700" stroke-linecap="round" stroke-linejoin="round"/>
<path d="M4.67383 6.46924H7.42883" stroke="#EBB700" stroke-linecap="round" stroke-linejoin="round"/>
<path d="M10.184 16.3063H5.59201C2.83701 16.3063 1 14.9283 1 11.7143V5.28634C1 2.07234 2.83701 0.694336 5.59201 0.694336H14.776C17.531 0.694336 19.368 2.07234 19.368 5.28634V8.04134" stroke="#4E6ACB" stroke-linecap="round" stroke-linejoin="round"/>
<path d="M16.5714 16.3064C18.1156 16.3064 19.3674 15.0545 19.3674 13.5104C19.3674 11.9662 18.1156 10.7144 16.5714 10.7144C15.0272 10.7144 13.7754 11.9662 13.7754 13.5104C13.7754 15.0545 15.0272 16.3064 16.5714 16.3064Z" stroke="#EBB700" stroke-width="0.8" stroke-linecap="round" stroke-linejoin="round"/>
<path d="M17.8281 12.7365C17.8177 12.7484 17.8063 12.7594 17.7941 12.7695L16.1811 14.3875C16.1101 14.4575 16.0661 14.4575 15.9951 14.3875L15.3421 13.7345L15.3201 13.7115C15.3027 13.693 15.293 13.6685 15.293 13.643C15.293 13.6176 15.3027 13.5931 15.3201 13.5745C15.3387 13.5571 15.3632 13.5474 15.3886 13.5474C15.4141 13.5474 15.4386 13.5571 15.4571 13.5745L15.4831 13.5995L16.0501 14.1675C16.0601 14.1775 16.0691 14.1895 16.0871 14.2115C16.0979 14.1955 16.1096 14.1802 16.1221 14.1655C16.6368 13.6528 17.1498 13.1408 17.6611 12.6295C17.6844 12.6062 17.7133 12.5893 17.7451 12.5805C17.7639 12.577 17.7832 12.5801 17.8 12.5892C17.8167 12.5983 17.8299 12.6129 17.8371 12.6305C17.8456 12.6462 17.8493 12.6641 17.8477 12.6819C17.8461 12.6996 17.8393 12.7166 17.8281 12.7305" fill="#EBB700"/>
<path d="M17.8281 12.7365C17.8177 12.7484 17.8063 12.7594 17.7941 12.7695L16.1811 14.3875C16.1101 14.4575 16.0661 14.4575 15.9951 14.3875L15.3421 13.7345L15.3201 13.7115C15.3027 13.693 15.293 13.6685 15.293 13.643C15.293 13.6176 15.3027 13.5931 15.3201 13.5745C15.3387 13.5571 15.3632 13.5474 15.3886 13.5474C15.4141 13.5474 15.4386 13.5571 15.4571 13.5745L15.4831 13.5995L16.0501 14.1675C16.0601 14.1775 16.0691 14.1895 16.0871 14.2115C16.0979 14.1955 16.1096 14.1802 16.1221 14.1655C16.6368 13.6528 17.1498 13.1408 17.6611 12.6295C17.6844 12.6062 17.7133 12.5893 17.7451 12.5805C17.7639 12.577 17.7832 12.5801 17.8 12.5892C17.8167 12.5983 17.8299 12.6129 17.8371 12.6305C17.8456 12.6462 17.8493 12.6641 17.8477 12.6819C17.8461 12.6996 17.8393 12.7166 17.8281 12.7305" stroke="#EBB700" stroke-width="0.5"/>
</svg>
