<svg width="21" height="22" viewBox="0 0 21 22" fill="none" xmlns="http://www.w3.org/2000/svg">
<path d="M19.2764 6.71228L18.6544 5.63228C18.4005 5.19427 17.9835 4.87469 17.4945 4.7435C17.0055 4.61231 16.4845 4.68019 16.0454 4.93228C15.6121 5.18808 15.0949 5.26151 14.6075 5.13646C14.1201 5.01142 13.7021 4.69811 13.4454 4.26528L13.4394 4.25528C13.2751 3.97812 13.1868 3.66249 13.1834 3.34028C13.192 3.08862 13.1507 2.83775 13.0621 2.60206C12.9735 2.36636 12.8392 2.15049 12.6669 1.96681C12.4947 1.78314 12.2879 1.63528 12.0584 1.53171C11.8288 1.42814 11.5811 1.3709 11.3294 1.36328H10.0134C9.50952 1.36328 9.02625 1.56346 8.66993 1.91978C8.31361 2.2761 8.11343 2.75937 8.11343 3.26328V3.27628C8.10633 3.77929 7.90138 4.25926 7.54295 4.61226C7.18453 4.96525 6.70149 5.16286 6.19843 5.16228C5.87622 5.15895 5.56059 5.07064 5.28343 4.90628C4.84439 4.65419 4.32335 4.58631 3.83437 4.7175C3.3454 4.84869 2.92831 5.16827 2.67443 5.60628L2.00643 6.70628C1.75433 7.14532 1.68645 7.66636 1.81765 8.15534C1.94884 8.64431 2.26842 9.0614 2.70643 9.31528C2.99738 9.48314 3.239 9.72465 3.407 10.0155C3.57499 10.3064 3.66344 10.6364 3.66344 10.9723C3.66344 11.3082 3.57499 11.6382 3.407 11.929C3.239 12.2199 2.99738 12.4614 2.70643 12.6293C2.48962 12.753 2.29931 12.9182 2.14638 13.1155C1.99345 13.3128 1.88089 13.5383 1.81514 13.7791C1.74939 14.0199 1.73174 14.2713 1.76319 14.5189C1.79464 14.7665 1.87457 15.0056 1.99843 15.2223V15.2293L2.63043 16.3183C2.75177 16.5384 2.9153 16.7324 3.11166 16.8893C3.30802 17.0461 3.53336 17.1628 3.77482 17.2325C4.01627 17.3023 4.2691 17.3237 4.51887 17.2957C4.76863 17.2677 5.01042 17.1908 5.23043 17.0693L5.24343 17.0623C5.67804 16.8108 6.19454 16.7415 6.68005 16.8697C7.16556 16.9979 7.58059 17.313 7.83443 17.7463L7.84343 17.7623C8.00779 18.0394 8.0961 18.3551 8.09943 18.6773C8.0993 18.9285 8.14869 19.1774 8.24478 19.4095C8.34087 19.6417 8.48178 19.8526 8.65944 20.0303C8.83711 20.2079 9.04804 20.3488 9.2802 20.4449C9.51235 20.541 9.76117 20.5904 10.0124 20.5903H11.2624C11.7675 20.59 12.2519 20.3902 12.6103 20.0343C12.9686 19.6784 13.1717 19.1953 13.1754 18.6903C13.1737 18.4408 13.2212 18.1934 13.3151 17.9622C13.409 17.731 13.5475 17.5206 13.7227 17.343C13.8979 17.1653 14.1064 17.0239 14.3363 16.9269C14.5662 16.8298 14.8129 16.779 15.0624 16.7773H15.0984C15.4198 16.7863 15.734 16.8742 16.0134 17.0333C16.4525 17.2854 16.9735 17.3533 17.4625 17.2221C17.9515 17.0909 18.3685 16.7713 18.6224 16.3333L19.2814 15.2333C19.4075 15.0178 19.4898 14.7796 19.5237 14.5323C19.5576 14.285 19.5425 14.0334 19.4792 13.792C19.4158 13.5505 19.3055 13.3239 19.1546 13.1251C19.0036 12.9263 18.815 12.7592 18.5994 12.6333L18.5814 12.6233C18.1438 12.3738 17.8231 11.9607 17.69 11.4748C17.5568 10.9889 17.6221 10.47 17.8714 10.0323L17.8814 10.0143C18.0475 9.72221 18.2894 9.48038 18.5814 9.31428C19.0172 9.06063 19.3352 8.64518 19.4663 8.15829C19.5974 7.6714 19.531 7.15244 19.2814 6.71428L19.2764 6.71228Z" stroke="#90A2DE" stroke-linecap="round" stroke-linejoin="round"/>
<path d="M10.6438 13.6094C12.0996 13.6094 13.2798 12.4292 13.2798 10.9734C13.2798 9.51758 12.0996 8.3374 10.6438 8.3374C9.18799 8.3374 8.00781 9.51758 8.00781 10.9734C8.00781 12.4292 9.18799 13.6094 10.6438 13.6094Z" stroke="#E1E1E1" stroke-linecap="round" stroke-linejoin="round"/>
</svg>
